<svg width="13" height="21" viewBox="0 0 13 21" fill="none" xmlns="http://www.w3.org/2000/svg">
<path d="M6.18221 10.3151C3.47628 10.3151 1.27515 8.11397 1.27515 5.40804C1.27515 2.70211 3.4753 0.5 6.18221 0.5C8.88911 0.5 11.0893 2.70113 11.0893 5.40706C11.0893 8.11299 8.88814 10.3141 6.18221 10.3141V10.3151ZM6.18221 1.05469C3.7815 1.05469 1.82885 3.00734 1.82885 5.40706C1.82885 7.80679 3.7815 9.76042 6.18221 9.76042C8.58291 9.76042 10.5346 7.80777 10.5346 5.40706C10.5346 3.00636 8.58193 1.05469 6.18221 1.05469Z" fill="#2C2B3D"/>
<path d="M12.3244 20.4998H0.276854C0.123263 20.4998 0 20.3756 0 20.223V16.0614C0 12.5875 2.82626 9.76025 6.30111 9.76025C9.77597 9.76025 12.6022 12.5865 12.6022 16.0614V20.223C12.6022 20.3766 12.478 20.4998 12.3254 20.4998H12.3244ZM0.554686 19.9451H12.0475V16.0604C12.0475 12.8917 9.46977 10.314 6.30111 10.314C3.13246 10.314 0.554686 12.8927 0.554686 16.0604V19.9451Z" fill="#2C2B3D"/>
</svg>
