<svg width="24" height="27" viewBox="0 0 24 27" fill="none" xmlns="http://www.w3.org/2000/svg">
<path d="M14.4417 2.65232H13.5802C13.356 2.03703 12.9481 1.50558 12.4116 1.13005C11.8751 0.754524 11.2361 0.553101 10.5812 0.553101C9.92639 0.553101 9.28739 0.754524 8.75091 1.13005C8.21443 1.50558 7.80644 2.03703 7.58228 2.65232H6.89305C6.37145 2.65448 5.87182 2.86264 5.50299 3.23148C5.13415 3.60031 4.92599 4.09994 4.92383 4.62154V7.57538H16.411V4.62154C16.4088 4.09994 16.2006 3.60031 15.8318 3.23148C15.463 2.86264 14.9633 2.65448 14.4417 2.65232ZM14.7699 5.93436H6.56485V4.49847C6.56485 4.44406 6.58646 4.39189 6.62493 4.35342C6.6634 4.31495 6.71557 4.29334 6.76997 4.29334H8.97715L9.07561 3.38257C9.09307 3.23532 9.14251 3.09366 9.22046 2.96752C9.29841 2.84138 9.403 2.7338 9.52689 2.65232C9.7471 2.48816 10.005 2.3819 10.2769 2.34327C10.5489 2.30465 10.8261 2.3349 11.0833 2.43125C11.3406 2.5276 11.5695 2.68698 11.7491 2.89476C11.9287 3.10254 12.0533 3.35208 12.1115 3.62052L12.1853 4.30975H14.5648C14.6192 4.30975 14.6714 4.33136 14.7099 4.36983C14.7483 4.4083 14.7699 4.46047 14.7699 4.51487V5.93436Z" fill="#95969D"/>
<path d="M23.1789 14.1887H13.3984L15.7287 11.8666C15.8052 11.7901 15.8658 11.6993 15.9073 11.5994C15.9487 11.4994 15.97 11.3923 15.97 11.2841C15.97 11.1759 15.9487 11.0687 15.9073 10.9688C15.8658 10.8688 15.8052 10.778 15.7287 10.7015C15.6522 10.625 15.5613 10.5643 15.4614 10.5229C15.3614 10.4815 15.2543 10.4602 15.1461 10.4602C15.0379 10.4602 14.9308 10.4815 14.8308 10.5229C14.7309 10.5643 14.64 10.625 14.5635 10.7015L10.2559 15.0092L14.5635 19.3169C14.6402 19.3929 14.7311 19.4531 14.8311 19.4939C14.9311 19.5347 15.0381 19.5554 15.1461 19.5548C15.3074 19.5541 15.4649 19.506 15.599 19.4163C15.733 19.3266 15.8377 19.1994 15.8998 19.0505C15.962 18.9017 15.9789 18.7378 15.9485 18.5794C15.918 18.421 15.8416 18.2751 15.7287 18.1599L13.3984 15.8297H23.1789C23.3965 15.8297 23.6052 15.7432 23.7591 15.5894C23.913 15.4355 23.9994 15.2268 23.9994 15.0092C23.9994 14.7916 23.913 14.5829 23.7591 14.429C23.6052 14.2751 23.3965 14.1887 23.1789 14.1887Z" fill="#95969D"/>
<path d="M19.6926 12.4984H21.3336V4.85123C21.3358 4.67168 21.3024 4.49347 21.2354 4.32686C21.1685 4.16024 21.0692 4.00852 20.9434 3.8804C20.8176 3.75229 20.6676 3.65032 20.5023 3.58037C20.3369 3.51041 20.1593 3.47385 19.9797 3.47278H18.1172V5.1138H19.6926V12.4984Z" fill="#95969D"/>
<path d="M19.6923 24.806H1.64112V5.1138H3.28214V3.47278H1.34574C0.985924 3.47711 0.642446 3.62364 0.390319 3.88038C0.138192 4.13712 -0.00209457 4.4832 9.91589e-05 4.84303V25.0686C-0.00206748 25.2481 0.0312915 25.4264 0.098257 25.593C0.165222 25.7596 0.264473 25.9113 0.390297 26.0394C0.516121 26.1675 0.666036 26.2695 0.831416 26.3395C0.996795 26.4094 1.17438 26.446 1.35394 26.447H19.9877C20.3475 26.4427 20.691 26.2962 20.9431 26.0394C21.1953 25.7827 21.3355 25.4366 21.3334 25.0768V17.4707H19.6923V24.806Z" fill="#95969D"/>
</svg>
