<svg width="200" height="200" viewBox="0 0 200 200" fill="none" xmlns="http://www.w3.org/2000/svg">
<path fill-rule="evenodd" clip-rule="evenodd" d="M181.882 66.0909C192.673 73.8636 200 85.9091 200 100C200 114.091 192.673 126.145 181.882 133.909C184.064 147.018 180.664 160.8 170.727 170.727C160.773 180.682 147 183.991 133.945 181.864C126.209 192.691 114.055 200 100 200C85.9091 200 73.8364 192.664 66.0818 181.855C53.0091 183.991 39.2273 180.691 29.2636 170.727C19.3091 160.773 16 146.991 18.2 133.909C7.41818 126.155 0 114.1 0 100C0 85.9 7.41818 73.8364 18.2 66.0909C16 53.0091 19.3091 39.2273 29.2727 29.2727C39.2091 19.3273 53 15.9364 66.1545 18.1182C73.8636 7.30909 85.9364 0 100 0C114.045 0 126.182 7.3 133.927 18.1182C147.036 15.9364 160.8 19.3455 170.727 29.2727C180.664 39.2 184.073 52.9818 181.882 66.0909ZM141.645 65.3273C142.617 66.0208 143.443 66.899 144.075 67.9117C144.708 68.9244 145.135 70.0518 145.331 71.2294C145.528 72.4071 145.491 73.6119 145.222 74.7752C144.953 75.9385 144.457 77.0373 143.764 78.0091L98.3091 141.645C97.5418 142.72 96.5496 143.615 95.4015 144.267C94.2534 144.919 92.9769 145.314 91.6609 145.423C90.3449 145.532 89.021 145.353 87.7812 144.898C86.5414 144.444 85.4155 143.725 84.4818 142.791L57.2091 115.518C55.5531 113.804 54.6368 111.507 54.6575 109.124C54.6782 106.74 55.6343 104.46 57.3198 102.774C59.0054 101.089 61.2855 100.133 63.6691 100.112C66.0527 100.091 68.3491 101.008 70.0636 102.664L89.7455 122.345L128.964 67.4364C130.366 65.475 132.489 64.151 134.868 63.7555C137.246 63.3599 139.684 63.9253 141.645 65.3273Z" fill="#05BD6E"/>
</svg>
