<svg width="748" height="626" viewBox="0 0 748 626" fill="none" xmlns="http://www.w3.org/2000/svg">
<g clip-path="url(#clip0_27_261)">
<path d="M647.467 0H26.3911C11.8162 0 0.000976562 11.8153 0.000976562 26.3902V389.618C0.000976562 404.193 11.8162 416.008 26.3911 416.008H647.467C662.042 416.008 673.857 404.193 673.857 389.618V26.3902C673.857 11.8153 662.042 0 647.467 0Z" fill="#C5F9E2"/>
<path d="M673.856 66.6185V26.3901C673.856 11.8164 662.042 0 647.466 0H26.3901C11.8164 0 0 11.8164 0 26.3901V66.6185H673.856Z" fill="#A3E8CA"/>
<path d="M44.5725 32.5908C44.5725 37.6194 40.4951 41.6968 35.4666 41.6968C30.438 41.6968 26.3606 37.6194 26.3606 32.5908C26.3606 27.5623 30.438 23.4849 35.4666 23.4849C40.4951 23.4849 44.5725 27.5623 44.5725 32.5908Z" fill="#83DDB6"/>
<path d="M84.3503 32.5908C84.3503 37.6194 80.2729 41.6968 75.2444 41.6968C70.2158 41.6968 66.1384 37.6194 66.1384 32.5908C66.1384 27.5623 70.2158 23.4849 75.2444 23.4849C80.2729 23.4849 84.3503 27.5623 84.3503 32.5908Z" fill="#83DDB6"/>
<path d="M119.874 32.5908C119.874 37.6194 115.797 41.6968 110.768 41.6968C105.74 41.6968 101.662 37.6194 101.662 32.5908C101.662 27.5623 105.74 23.4849 110.768 23.4849C115.797 23.4849 119.874 27.5623 119.874 32.5908Z" fill="#83DDB6"/>
<path d="M202.265 91.762H46.6836C40.6211 91.762 35.7065 96.6766 35.7065 102.739V217.996C35.7065 224.058 40.6211 228.973 46.6836 228.973H202.265C208.327 228.973 213.242 224.058 213.242 217.996V102.739C213.242 96.6766 208.327 91.762 202.265 91.762Z" fill="#A3E8CA"/>
<path d="M202.265 336.908H46.6836C40.6211 336.908 35.7065 341.822 35.7065 347.885V371.913C35.7065 377.975 40.6211 382.89 46.6836 382.89H202.265C208.327 382.89 213.242 377.975 213.242 371.913V347.885C213.242 341.822 208.327 336.908 202.265 336.908Z" fill="#A3E8CA"/>
<path d="M419.859 336.908H264.278C258.215 336.908 253.301 341.822 253.301 347.885V371.913C253.301 377.975 258.215 382.89 264.278 382.89H419.859C425.921 382.89 430.836 377.975 430.836 371.913V347.885C430.836 341.822 425.921 336.908 419.859 336.908Z" fill="#A3E8CA"/>
<path d="M641.277 336.907H485.696C479.634 336.907 474.719 341.822 474.719 347.884V371.912C474.719 377.975 479.634 382.889 485.696 382.889H641.277C647.34 382.889 652.254 377.975 652.254 371.912V347.884C652.254 341.822 647.34 336.907 641.277 336.907Z" fill="#A3E8CA"/>
<path d="M418.034 91.762H262.453C256.39 91.762 251.476 96.6766 251.476 102.739V217.996C251.476 224.058 256.39 228.973 262.453 228.973H418.034C424.096 228.973 429.011 224.058 429.011 217.996V102.739C429.011 96.6766 424.096 91.762 418.034 91.762Z" fill="#A3E8CA"/>
<path d="M634.847 91.762H479.266C473.203 91.762 468.289 96.6766 468.289 102.739V217.996C468.289 224.058 473.203 228.973 479.266 228.973H634.847C640.909 228.973 645.824 224.058 645.824 217.996V102.739C645.824 96.6766 640.909 91.762 634.847 91.762Z" fill="#A3E8CA"/>
<path d="M202.265 258.563H46.6836C40.6211 258.563 35.7065 263.478 35.7065 269.541V276.105C35.7065 282.167 40.6211 287.082 46.6836 287.082H202.265C208.327 287.082 213.242 282.167 213.242 276.105V269.541C213.242 263.478 208.327 258.563 202.265 258.563Z" fill="#A3E8CA"/>
<path d="M418.034 258.563H262.453C256.39 258.563 251.476 263.478 251.476 269.541V276.105C251.476 282.167 256.39 287.082 262.453 287.082H418.034C424.096 287.082 429.011 282.167 429.011 276.105V269.541C429.011 263.478 424.096 258.563 418.034 258.563Z" fill="#A3E8CA"/>
<path d="M634.847 258.563H479.266C473.203 258.563 468.289 263.478 468.289 269.541V276.105C468.289 282.167 473.203 287.082 479.266 287.082H634.847C640.909 287.082 645.824 282.167 645.824 276.105V269.541C645.824 263.478 640.909 258.563 634.847 258.563Z" fill="#A3E8CA"/>
<path d="M170.982 147.494H79.3381V207.182H170.982V147.494Z" fill="#C5F9E2"/>
<g style="mix-blend-mode:multiply" opacity="0.35">
<path d="M170.982 147.494H79.3381V155.428H170.982V147.494Z" fill="#A3E8CA"/>
</g>
<path d="M184.466 133.909H65.8782V147.488H184.466V133.909Z" fill="#C5F9E2"/>
<path d="M133.727 133.909H116.609V207.186H133.727V133.909Z" fill="#DEFCEF"/>
<path d="M101.958 133.939C95.1209 133.939 89.3569 128.344 89.4842 121.507C89.4894 121.281 89.4998 121.058 89.5154 120.837C90.1391 112.287 100.747 108.599 106.81 114.659L126.09 133.939H101.958Z" fill="#DEFCEF"/>
<path d="M124.244 133.941L143.524 114.661C149.587 108.598 160.195 112.285 160.818 120.838C160.834 121.059 160.844 121.282 160.85 121.508C160.977 128.345 155.213 133.941 148.376 133.941H124.244Z" fill="#DEFCEF"/>
<path d="M600.659 127.596H509.015V207.182H600.659V127.596Z" fill="#C5F9E2"/>
<path d="M554.147 139.377H518.713V162.178H554.147V139.377Z" fill="#DEFCEF"/>
<path d="M383.68 129.061H284.229V207.172H383.68V129.061Z" fill="#C5F9E2"/>
<path d="M320.051 129.053H308.104V207.181H320.051V129.053Z" fill="#DEFCEF"/>
<path d="M383.679 147.413H284.228V159.351H383.679V147.413Z" fill="#DEFCEF"/>
<path d="M325.974 147.413H320.046V159.351H325.974V147.413Z" fill="#A3E8CA"/>
<path d="M307.768 147.413H301.84V159.351H307.768V147.413Z" fill="#A3E8CA"/>
<path d="M524.657 183.367H378.791V298.575H524.657V183.367Z" fill="#F47B51"/>
<path d="M515.423 193.024H481.616V210.368H515.423V193.024Z" fill="white"/>
<path d="M488.392 197.055H485.284V207.291H488.392V197.055Z" fill="#423C3B"/>
<path d="M501.333 197.054H498.742V207.291H501.333V197.054Z" fill="#423C3B"/>
<path d="M507.84 197.054H503.799V207.291H507.84V197.054Z" fill="#423C3B"/>
<path d="M497.383 197.054H494.085V207.291H497.383V197.054Z" fill="#423C3B"/>
<path d="M492.165 197.054H490.218V207.291H492.165V197.054Z" fill="#423C3B"/>
<path d="M511.042 197.055H509.617V207.291H511.042V197.055Z" fill="#423C3B"/>
<path d="M463.602 600.933C463.602 600.933 463.776 625.844 480.556 625.498C497.336 625.153 515.465 624.241 520.948 624.633C527.003 625.064 527.695 614.425 509.789 613.217C498.438 612.45 493.181 604.048 490.761 599.55L463.602 600.933Z" fill="#FFB395"/>
<path d="M336.165 599.347C336.165 599.347 336.337 625.844 353.119 625.498C369.899 625.153 388.028 624.241 393.512 624.633C399.567 625.064 400.258 614.425 382.353 613.217C371.001 612.45 365.747 604.049 363.325 599.55L336.165 599.347Z" fill="#FFB395"/>
<path d="M260.856 342.052C260.856 342.052 401.785 365.118 419.776 372.959C437.767 380.802 368.973 599.982 368.973 599.982H329.473L335.816 438.465C335.816 438.465 214.492 427.623 139.069 392.909L260.853 342.049L260.856 342.052Z" fill="#176644"/>
<path d="M139.081 392.912C139.081 392.912 171.604 447.231 229.382 447.576C287.162 447.922 343.903 447.576 343.903 447.576L461.017 602.23H495.614C495.614 602.23 413.096 398.099 406.87 395.331C400.643 392.564 260.865 342.049 260.865 342.049L139.081 392.909V392.912Z" fill="#297A57"/>
<path d="M201.713 157.168C201.713 157.168 109.32 223.496 138.845 395.103L260.86 342.053L233.953 177.711L201.713 157.168Z" fill="#2FC182"/>
<path d="M415.011 294.787C405.084 294.62 397.015 284.743 397.015 284.743C397.015 284.743 414.221 276.471 410.913 273.493C407.605 270.515 377.803 278.477 377.803 278.477L371.142 278.173L373.434 296.944C387.532 297.463 397.319 304.314 407.264 305.231C419.837 306.39 441.303 299.293 441.799 296.977C442.295 294.662 424.938 294.953 415.011 294.787Z" fill="#FFB395"/>
<path d="M260.051 101.477C259.344 101.701 258.658 101.961 257.951 102.221C257.933 102.221 257.914 102.239 257.896 102.239C247.54 105.027 229.024 99.952 229.024 99.952C219.357 113.691 212.738 113.432 212.738 113.432C208.666 106.571 202.234 109.713 201.808 120.906C201.566 127.376 203.593 130.479 205.693 131.948C207.886 133.491 208.965 136.186 208.11 138.733L203.593 152.155C201.605 150.651 181.6 134.624 188.999 101.737C196.808 67.1404 222.239 70.2069 222.239 70.2069C222.239 70.2069 226.07 66.5998 234.341 65.4668C240.589 64.6118 246.909 65.7448 252.745 68.1071C256.537 69.6507 263.026 70.7292 270.388 65.2823C282.083 56.6363 282.267 94.2815 260.051 101.477Z" fill="#297A57"/>
<path d="M260.04 101.482C260.04 101.482 270.975 161.253 234.351 154.384L230.537 175.748L201.795 157.435L208.097 138.727C208.954 136.18 207.878 133.493 205.68 131.947C203.583 130.473 201.548 127.378 201.795 120.894C202.218 109.704 208.663 106.567 212.73 113.433C212.73 113.433 219.344 113.688 229.008 99.9537C229.008 99.9537 250.373 105.803 260.037 101.479L260.04 101.482Z" fill="#FFB395"/>
<path d="M222.603 143.83C219.812 139.641 226.496 158.708 221.725 170.137L230.54 175.753L234.355 154.389C234.355 154.389 225.688 148.456 222.603 143.83Z" fill="#F99775"/>
<path d="M593.063 276.707L584.95 300.545L533.563 296.876C533.563 296.876 512.123 304.321 502.196 305.238C489.621 306.384 468.14 299.295 467.662 296.98C467.16 294.664 484.512 294.958 494.439 294.789C504.366 294.622 512.438 284.737 512.438 284.737C512.438 284.737 495.231 276.478 498.547 273.495C501.175 271.117 523.22 276.811 530.372 278.729C531.874 279.126 533.417 279.313 534.961 279.23L593.063 276.707Z" fill="#FFB395"/>
<path d="M189.285 184.988C188.159 185.906 186.699 187.2 185.051 188.868C186.28 187.491 187.699 186.22 189.285 184.988Z" fill="#2F78C1"/>
<path d="M577.902 321.323L573.832 333.29H462.227V326.518C462.227 323.641 464.561 321.326 467.419 321.326L577.902 321.323Z" fill="#297A57"/>
<path d="M585.801 333.286L624.452 219.573H612.485L573.837 333.286H585.801Z" fill="#297A57"/>
<path d="M567.666 299.311L584.953 300.545L593.066 276.707L586.236 277.003L567.666 299.311Z" fill="#F99775"/>
<g style="mix-blend-mode:multiply" opacity="0.27">
<path d="M260.864 342.049L220.113 359.775C220.425 337.732 214.149 312.371 193.398 287.387C150.083 235.249 172.564 201.548 185.015 188.908C155.86 221.735 220.49 291.368 220.49 291.368L249.082 270.053L260.864 342.049Z" fill="#297A57"/>
</g>
<path d="M249.791 235.144L284.947 273.512C286.691 275.414 289.136 276.521 291.714 276.576L378.002 278.418L379.047 296.446L277.382 306.978C271.252 307.612 265.126 305.715 260.428 301.724L206.717 256.077L249.791 235.144Z" fill="#FFB395"/>
<path d="M272.945 252.245C272.945 252.245 228.657 158.135 191.475 183.301C147.681 212.942 220.479 291.372 220.479 291.372L272.945 252.245Z" fill="#2FC182"/>
<path d="M407.7 211.562H388.426V192.287H407.7V211.562ZM390.375 209.613H405.751V194.236H390.375V209.613Z" fill="#A33417"/>
<path d="M431.543 211.561H412.269V192.287H431.543V211.561ZM414.218 209.612H429.594V194.236H414.218V209.612Z" fill="#A33417"/>
<path d="M649.625 333.172H429.12V377.832H649.625V333.172Z" fill="#F47B51"/>
<path d="M649.625 365.579H429.12V377.832H649.625V365.579Z" fill="#E55730"/>
<path d="M649.625 377.832H429.12V392.431H649.625V377.832Z" fill="#A5452B"/>
<path d="M443.384 392.432H429.12V625.185H443.384V392.432Z" fill="#A5452B"/>
<path d="M649.627 392.432H635.362V625.185H649.627V392.432Z" fill="#A5452B"/>
<path d="M312.303 447.936H186.943C179.011 447.936 172.036 442.695 169.83 435.078L127.676 289.556C123.055 273.6 108.443 262.621 91.8316 262.621H86.1248L146.031 455.008C150.243 468.869 163.029 478.347 177.517 478.347H339.865C339.865 478.347 334.161 454.589 312.303 447.936Z" fill="#E55730"/>
<path d="M162.854 624.22L205.821 477.394H189.429L146.461 624.22H162.854Z" fill="#E55730"/>
<path d="M316.299 624.22L273.332 477.394H289.725L332.692 624.22H316.299Z" fill="#E55730"/>
<path d="M201.934 490.699L205.827 477.394H189.434L185.541 490.699H201.934Z" fill="#A5452B"/>
<path d="M293.62 490.699L289.725 477.394H273.332L277.225 490.699H293.62Z" fill="#A5452B"/>
<path d="M302.369 576.636L239.111 538.183L176.965 575.963L180.201 564.879L231.627 533.653L195.738 511.824L197.989 504.108L239.111 529.095L281.034 503.64L283.287 511.356L246.593 533.653L299.134 565.555L302.369 576.636Z" fill="#E55730"/>
<path d="M105.821 537.718H3.72412L17.0868 622.8H92.4553L105.821 537.718Z" fill="#A5452B"/>
<path d="M92.6841 537.718L79.3188 622.8H93.6275L106.993 537.718H92.6841Z" fill="#8E2D16"/>
<path d="M111.894 530.887H0V537.719H111.894V530.887Z" fill="#A5452B"/>
<path d="M105.292 548.547L106.991 537.718H4.89478L6.59435 548.547H105.292Z" fill="#8E2D16"/>
<path d="M60.6293 469.775H47.5369V530.617H60.6293V469.775Z" fill="#E55730"/>
<path d="M54.7717 475.161C80.7165 475.161 101.749 454.128 101.749 428.183C101.749 402.239 80.7165 381.206 54.7717 381.206C28.8269 381.206 7.79443 402.239 7.79443 428.183C7.79443 454.128 28.8269 475.161 54.7717 475.161Z" fill="#2FC182"/>
<g style="mix-blend-mode:multiply" opacity="0.27">
<path d="M54.7721 381.206C50.3984 381.206 46.1859 381.848 42.1682 382.965C61.9835 388.48 76.5416 406.611 76.5416 428.183C76.5416 449.756 61.9835 467.887 42.1682 473.401C46.1859 474.519 50.3984 475.163 54.7721 475.163C80.7178 475.163 101.749 454.129 101.749 428.186C101.749 402.243 80.7178 381.206 54.7721 381.206Z" fill="#297A57"/>
</g>
<path d="M747.72 547.827H649.522V625.384H747.72V547.827Z" fill="#F47B51"/>
<path d="M737.894 604.909H707.923V619.639H737.894V604.909Z" fill="white"/>
<path d="M685.921 515.536H546.845V625.379H685.921V515.536Z" fill="#F47B51"/>
<path d="M589.407 527.627H559.436V545.452H589.407V527.627Z" fill="white"/>
<path d="M685.938 539.242V547.826H649.527V625.388H638.646V539.242H685.938Z" fill="#E55730"/>
</g>
<defs>
<clipPath id="clip0_27_261">
<rect width="747.72" height="625.502" fill="white"/>
</clipPath>
</defs>
</svg>
