<svg width="23" height="21" viewBox="0 0 23 21" fill="none" xmlns="http://www.w3.org/2000/svg">
<g clip-path="url(#clip0_124_3938)">
<path d="M22.3314 20.5H7.43848C7.28875 20.5 7.16858 20.3789 7.16858 20.2301V13.0678C7.16858 12.9191 7.2897 12.7979 7.43848 12.7979C7.58725 12.7979 7.70837 12.9191 7.70837 13.0678V19.9602H22.0615V1.04075H7.70837V8.33844C7.70837 8.48722 7.58725 8.60834 7.43848 8.60834C7.2897 8.60834 7.16858 8.48722 7.16858 8.33844V0.769897C7.16858 0.620166 7.2897 0.5 7.43848 0.5H22.3324C22.4821 0.5 22.6023 0.62112 22.6023 0.769897V20.2291C22.6023 20.3789 22.4812 20.499 22.3324 20.499L22.3314 20.5Z" fill="#272525"/>
<path d="M12.9251 10.9724H1.34717C1.19744 10.9724 1.07727 10.8513 1.07727 10.7025C1.07727 10.5537 1.19839 10.4326 1.34717 10.4326H12.9251C13.0748 10.4326 13.195 10.5537 13.195 10.7025C13.195 10.8513 13.0738 10.9724 12.9251 10.9724Z" fill="#272525"/>
<path d="M3.81441 12.9761C3.76005 12.9761 3.70569 12.9598 3.658 12.9255L0.845546 10.9218C0.774018 10.8712 0.732056 10.7892 0.732056 10.7015C0.732056 10.6137 0.774018 10.5327 0.845546 10.4812L3.658 8.47651C3.78007 8.38973 3.94793 8.41834 4.03471 8.53946C4.1215 8.66058 4.09289 8.82938 3.97177 8.91617L1.46831 10.7005L3.97177 12.4849C4.09384 12.5717 4.1215 12.7405 4.03471 12.8616C3.98226 12.936 3.89833 12.9761 3.81441 12.9761Z" fill="#272525"/>
</g>
<defs>
<clipPath id="clip0_124_3938">
<rect width="21.8702" height="20" fill="white" transform="translate(0.732056 0.5)"/>
</clipPath>
</defs>
</svg>
