<svg width="43" height="52" viewBox="0 0 43 52" fill="none" xmlns="http://www.w3.org/2000/svg">
<path d="M36.6118 4.78184C34.2623 2.10391 30.0152 0.955811 24.582 0.955811H8.81315C8.27558 0.95583 7.75565 1.14762 7.34683 1.49669C6.93802 1.84576 6.66713 2.32922 6.58289 2.86014L0.0170385 44.5023C-0.113469 45.3235 0.522376 46.0671 1.35466 46.0671H11.0898L13.5347 30.5595L13.4588 31.0451C13.633 29.9489 14.5705 29.1404 15.6806 29.1404H20.3068C29.3947 29.1404 36.5108 25.4491 38.5895 14.7709C38.6512 14.4551 38.7046 14.1477 38.7508 13.8474C38.4884 13.7085 38.4884 13.7085 38.7508 13.8474C39.3698 9.90064 38.7466 7.21411 36.6118 4.78184Z" fill="#27346A"/>
<path d="M17.2597 12.4256C17.5259 12.2989 17.817 12.2332 18.1117 12.2334H30.4742C31.9381 12.2334 33.3036 12.3287 34.5513 12.5295C34.9005 12.5852 35.2478 12.6516 35.5928 12.7288C36.0819 12.8367 36.5653 12.9688 37.0412 13.1245C37.6547 13.3294 38.2259 13.568 38.751 13.8474C39.3698 9.89912 38.7466 7.21411 36.6118 4.78184C34.2609 2.10391 30.0152 0.955811 24.582 0.955811H8.8118C7.70147 0.955811 6.7569 1.76415 6.58289 2.86014L0.0170394 44.5008C-0.113468 45.3233 0.522377 46.0659 1.35331 46.0659H11.0898L16.1622 13.8993C16.2121 13.5832 16.338 13.2838 16.5292 13.0271C16.7204 12.7704 16.9711 12.564 17.2597 12.4256Z" fill="#27346A"/>
<path d="M38.5892 14.7709C36.5106 25.4476 29.3947 29.1404 20.3065 29.1404H15.6791C14.5689 29.1404 13.6313 29.9489 13.4588 31.0451L10.4171 50.327C10.3035 51.0456 10.8592 51.6968 11.5863 51.6968H19.7928C20.2629 51.6967 20.7175 51.5288 21.0749 51.2234C21.4323 50.9181 21.669 50.4952 21.7425 50.0309L21.8224 49.6127L23.3691 39.8102L23.4687 39.2684C23.5422 38.8041 23.7789 38.3813 24.1362 38.0759C24.4936 37.7705 24.9482 37.6026 25.4183 37.6025H26.6464C34.5961 37.6025 40.8208 34.3728 42.6399 25.0323C43.3991 21.1289 43.0063 17.8699 40.9977 15.5808C40.3885 14.8874 39.6319 14.3148 38.7506 13.8474C38.7029 14.1492 38.6511 14.4551 38.5892 14.7709Z" fill="#2790C3"/>
<path d="M36.5751 12.9802C36.251 12.8856 35.9239 12.8018 35.5941 12.729C35.2489 12.6531 34.9016 12.587 34.5526 12.531C33.3035 12.3288 31.9391 12.2334 30.4738 12.2334H18.1129C17.8179 12.2327 17.5266 12.299 17.2609 12.4271C16.9719 12.5651 16.7209 12.7714 16.5297 13.0282C16.3384 13.2849 16.2126 13.5845 16.1632 13.9008L13.5358 30.5596L13.46 31.0452C13.6328 29.9491 14.5703 29.1405 15.6806 29.1405H20.3081C29.396 29.1405 36.5119 25.4492 38.5906 14.7711C38.6525 14.4552 38.7044 14.1492 38.7521 13.8476C38.2257 13.5697 37.656 13.3296 37.0424 13.126C36.8876 13.0747 36.7318 13.0261 36.5753 12.9802" fill="#1F264F"/>
</svg>
