<svg width="30" height="35" viewBox="0 0 30 35" fill="none" xmlns="http://www.w3.org/2000/svg">
<path d="M15.445 0.00184451C9.07543 0.00184451 3.89433 5.46887 3.89433 12.1898V16.7061C2.12022 17.5587 0.888672 19.3672 0.888672 21.4635C0.888672 24.2486 3.05722 26.5309 5.79418 26.7255C6.07666 27.6022 6.89138 28.2447 7.86111 28.2447C9.06337 28.2447 10.0417 27.2664 10.0417 26.0641V16.7302C10.0417 15.5279 9.06337 14.5496 7.86111 14.5496C6.8397 14.5496 5.98709 15.2575 5.75112 16.2066C5.44969 16.2307 5.15516 16.2806 4.86923 16.353V12.1916C4.87095 6.008 9.61455 0.978468 15.445 0.978468C21.2755 0.978468 26.0191 6.008 26.0191 12.1898V16.3513C25.7332 16.2789 25.4403 16.2272 25.1389 16.2048C24.9029 15.2558 24.0503 14.5479 23.0289 14.5479C21.8267 14.5479 20.8483 15.5262 20.8483 16.7285V26.0624C20.8483 27.2646 21.8267 28.243 23.0289 28.243C23.9987 28.243 24.8134 27.6022 25.0958 26.7238C26.0087 26.6601 26.8579 26.3638 27.5848 25.8919V30.2979C27.5848 31.2521 27.2041 32.177 26.541 32.8333C25.7831 33.5826 24.2381 34.2336 22.8756 33.9632C21.7957 33.7479 20.9672 32.9986 20.4056 31.7447C20.7639 31.4312 20.993 30.9765 20.993 30.4649C20.993 29.5228 20.2265 28.7563 19.2843 28.7563C18.3422 28.7563 17.5757 29.5228 17.5757 30.4649C17.5757 31.4071 18.3422 32.1736 19.2843 32.1736C19.3636 32.1736 19.4394 32.1598 19.5151 32.1495C20.3833 34.0838 21.7113 34.7263 22.6844 34.9192C22.9635 34.9743 23.2459 35.0001 23.5284 35.0001C24.9822 35.0001 26.4221 34.3215 27.2265 33.5257C28.0739 32.6869 28.5597 31.5105 28.5597 30.2979V25.2167C28.5597 25.1753 28.5459 25.1391 28.5356 25.1013C29.4398 24.1539 29.9996 22.8724 29.9996 21.4617C29.9996 19.3655 28.7681 17.5552 26.994 16.7044V12.1881C26.994 5.46715 21.8129 0.00012207 15.4433 0.00012207L15.445 0.00184451ZM6.65712 16.7285C6.65712 16.0636 7.19797 15.5245 7.86283 15.5245C8.52769 15.5245 9.06682 16.0653 9.06682 16.7285V26.0624C9.06682 26.7272 8.52597 27.2681 7.86283 27.2681C7.19969 27.2681 6.65712 26.7272 6.65712 26.0624V16.7285ZM5.6805 17.1884V25.7368C3.53606 25.494 1.8653 23.6699 1.8653 21.4617C1.8653 19.2536 3.53779 17.4312 5.6805 17.1884ZM24.2346 26.0607C24.2346 26.7255 23.6938 27.2664 23.0289 27.2664C22.3641 27.2664 21.8232 26.7255 21.8232 26.0607V16.7267C21.8232 16.0619 22.3641 15.5228 23.0289 15.5228C23.6938 15.5228 24.2346 16.0636 24.2346 16.7267V26.0607ZM19.2878 31.197C18.8847 31.197 18.5557 30.868 18.5557 30.4649C18.5557 30.0619 18.8847 29.7329 19.2878 29.7329C19.6908 29.7329 20.0198 30.0619 20.0198 30.4649C20.0198 30.868 19.6908 31.197 19.2878 31.197ZM29.0265 21.4617C29.0265 23.6699 27.354 25.4922 25.2113 25.7368V17.1884C27.3557 17.4312 29.0265 19.2553 29.0265 21.4617Z" fill="#272525"/>
</svg>
