<svg xmlns="http://www.w3.org/2000/svg" width="125" height="81" viewBox="0 0 125 81" fill="none">
  <path d="M42.1013 72.6335C46.2616 68.4732 46.2616 61.728 42.1013 57.5676C37.941 53.4073 31.1957 53.4073 27.0354 57.5676C22.8751 61.728 22.8751 68.4732 27.0354 72.6335C31.1957 76.7939 37.941 76.7939 42.1013 72.6335Z" fill="#A3E8CA"/>
  <path d="M39.1151 69.6473C41.6262 67.1362 41.6262 63.0649 39.1151 60.5538C36.604 58.0427 32.5327 58.0427 30.0216 60.5538C27.5105 63.0649 27.5105 67.1362 30.0216 69.6473C32.5327 72.1584 36.604 72.1584 39.1151 69.6473Z" fill="white"/>
  <path d="M34.5682 70.556C37.5812 70.556 40.0238 68.1135 40.0238 65.1004C40.0238 62.0873 37.5812 59.6448 34.5682 59.6448C31.5551 59.6448 29.1125 62.0873 29.1125 65.1004C29.1125 68.1135 31.5551 70.556 34.5682 70.556Z" fill="#E9F7F1"/>
  <path d="M96.4175 72.9691C100.578 68.8088 100.578 62.0635 96.4175 57.9032C92.2571 53.7429 85.5119 53.7429 81.3516 57.9032C77.1912 62.0635 77.1912 68.8088 81.3516 72.9691C85.5119 77.1294 92.2571 77.1294 96.4175 72.9691Z" fill="#A3E8CA"/>
  <path d="M93.4313 69.9829C95.9424 67.4718 95.9424 63.4005 93.4313 60.8894C90.9202 58.3783 86.8489 58.3783 84.3378 60.8894C81.8267 63.4005 81.8267 67.4718 84.3378 69.9829C86.8489 72.494 90.9202 72.494 93.4313 69.9829Z" fill="white"/>
  <path d="M88.8843 70.8921C91.8974 70.8921 94.34 68.4495 94.34 65.4365C94.34 62.4234 91.8974 59.9808 88.8843 59.9808C85.8713 59.9808 83.4287 62.4234 83.4287 65.4365C83.4287 68.4495 85.8713 70.8921 88.8843 70.8921Z" fill="#E9F7F1"/>
  <path d="M112.995 35.677L102.699 29.9479L90.9443 0.12207H11.562L19.5369 65.0469L117.398 64.0091L112.995 35.677Z" fill="#A3E8CA"/>
  <path d="M124.032 63.2841V64.7711H124.276L124.032 63.2841Z" fill="#ECECEC"/>
  <path d="M115.121 44.9978L113.722 36.4758C113.722 36.4758 104.318 37.2694 103.645 38.4018C102.693 39.7175 103.268 43.7638 104.48 44.8443C105.208 45.5184 115.121 44.9978 115.121 44.9978Z" fill="white"/>
  <path d="M103.069 30.1769L95.4677 4.49003L74.708 4.45813L82.5141 30.2502H103.168L103.069 30.1769Z" fill="white"/>
  <path d="M17.7876 63.1574H110.283L109.697 58.7104L20.6037 60.8371L17.7876 60.8339V63.1574Z" fill="#05BD6E"/>
  <path d="M11.1584 4.62871H98.9587L98.047 2.44019H10.324L11.1584 4.62871Z" fill="#05BD6E"/>
  <path d="M52.8186 48.1764H0.419971C-0.139492 48.1764 -0.140488 49.0462 0.419971 49.0462H52.8181C53.3776 49.0462 53.3791 48.1764 52.8186 48.1764Z" fill="#05BD6E"/>
  <path d="M43.0348 52.09H7.15996C6.6005 52.09 6.5995 52.9598 7.15996 52.9598H43.0343C43.5938 52.9598 43.5953 52.09 43.0348 52.09Z" fill="#05BD6E"/>
</svg>