<svg xmlns="http://www.w3.org/2000/svg" width="150" height="101" viewBox="0 0 150 101" fill="none">
  <path d="M117.588 0.502392L59.0293 59.0607L90.5869 90.6183L149.145 32.06L117.588 0.502392Z" fill="#E9F7F1"/>
  <path d="M126.146 9.06077C121.413 13.6366 113.868 13.5878 109.194 8.91438L109.185 8.90473L117.587 0.502075L126.146 9.06077Z" fill="#A3E8CA"/>
  <path d="M149.145 32.0598L140.742 40.4624L140.732 40.4528C136.059 35.7793 136.01 28.2335 140.586 23.5005L149.145 32.0598Z" fill="#A3E8CA"/>
  <path d="M67.7564 67.456C67.7008 67.5116 67.6447 67.5661 67.5885 67.6194L59.0298 59.0607L67.7474 50.3431L67.757 50.3528C72.4804 55.0762 72.4798 62.7326 67.7564 67.456Z" fill="#7E961D"/>
  <path d="M99.3044 81.9002L90.5868 90.6178L82.0281 82.0591C82.0814 82.0029 82.1359 81.9468 82.1915 81.8912C86.9149 77.1678 94.5713 77.1678 99.2947 81.8912L99.3044 81.9008V81.9002Z" fill="#A3E8CA"/>
  <path d="M104.729 60.7268C112.751 60.7268 119.254 54.2238 119.254 46.202C119.254 38.1802 112.751 31.6772 104.729 31.6772C96.7073 31.6772 90.2043 38.1802 90.2043 46.202C90.2043 54.2238 96.7073 60.7268 104.729 60.7268Z" fill="#A3E8CA"/>
  <path d="M88.8634 62.0671C90.825 64.0287 90.825 67.2092 88.8634 69.1714C86.9018 71.1336 83.7212 71.133 81.759 69.1714C79.7968 67.2098 79.7974 64.0287 81.759 62.0671C83.7207 60.1054 86.9012 60.1054 88.8634 62.0671Z" fill="#F9FAFA"/>
  <path d="M127.699 23.232C129.66 25.1936 129.66 28.3747 127.699 30.3363C125.737 32.298 122.556 32.298 120.594 30.3363C118.633 28.3747 118.633 25.1942 120.594 23.232C122.556 21.2703 125.736 21.2703 127.699 23.232Z" fill="#F9FAFA"/>
  <path d="M28.6291 60.1486C25.3356 63.076 8.37939 72.8348 0 77.5917L22.9098 100.502C27.7143 97.8249 33.2446 95.3066 37.2065 95.1931C45.7839 94.948 62.9382 84.6552 73.231 72.8922C80.1691 64.9627 93.0091 55.8082 100.642 50.6837C104.023 48.4139 104.94 43.8426 102.698 40.4431C100.688 37.3959 96.7605 36.2645 93.4381 37.7744L69.5551 48.6301L96.5125 21.6727C96.5125 21.6727 90.8761 17.5066 87.9351 18.9768C84.994 20.4471 56.0761 27.7994 53.1357 31.7204C50.1946 35.6414 33.0403 56.2276 28.6291 60.1486Z" fill="#A3E8CA"/>
  <path opacity="0.58" d="M99.7664 42.0056L100.551 43.5551C101.68 45.7828 100.788 48.5077 98.5601 49.6363L94.8119 51.5354C93.6588 52.1196 92.2487 51.6578 91.6645 50.5048L88.9063 45.0608C88.3221 43.9077 88.7838 42.4976 89.9369 41.9134L93.6852 40.0143C95.9129 38.8857 98.6378 39.7779 99.7664 42.0056Z" fill="white"/>
</svg>