<svg width="300" height="195" viewBox="0 0 300 195" fill="none" xmlns="http://www.w3.org/2000/svg">
<path d="M288.251 5.02832H11.7493C5.26062 5.02832 0.000488281 10.2885 0.000488281 16.7772V178.486C0.000488281 184.974 5.26062 190.234 11.7493 190.234H288.251C294.74 190.234 300 184.974 300 178.486V16.7772C300 10.2885 294.74 5.02832 288.251 5.02832Z" fill="#C5F9E2"/>
<path d="M300 34.6868V16.7772C300 10.289 294.74 5.02832 288.251 5.02832H11.7488C5.26065 5.02832 0 10.289 0 16.7772V34.6868H300Z" fill="#A3E8CA"/>
<path d="M19.8435 19.5378C19.8435 21.7766 18.0283 23.5918 15.7896 23.5918C13.5509 23.5918 11.7356 21.7766 11.7356 19.5378C11.7356 17.2991 13.5509 15.4839 15.7896 15.4839C18.0283 15.4839 19.8435 17.2991 19.8435 19.5378Z" fill="#83DDB6"/>
<path d="M37.5527 19.5378C37.5527 21.7766 35.7375 23.5918 33.4988 23.5918C31.2601 23.5918 29.4448 21.7766 29.4448 19.5378C29.4448 17.2991 31.2601 15.4839 33.4988 15.4839C35.7375 15.4839 37.5527 17.2991 37.5527 19.5378Z" fill="#83DDB6"/>
<path d="M53.3677 19.5378C53.3677 21.7766 51.5524 23.5918 49.3137 23.5918C47.075 23.5918 45.2598 21.7766 45.2598 19.5378C45.2598 17.2991 47.075 15.4839 49.3137 15.4839C51.5524 15.4839 53.3677 17.2991 53.3677 19.5378Z" fill="#83DDB6"/>
<path d="M90.0478 45.8804H20.7834C18.0845 45.8804 15.8965 48.0683 15.8965 50.7673V102.079C15.8965 104.778 18.0845 106.966 20.7834 106.966H90.0478C92.7468 106.966 94.9348 104.778 94.9348 102.079V50.7673C94.9348 48.0683 92.7468 45.8804 90.0478 45.8804Z" fill="#A3E8CA"/>
<path d="M90.0478 155.019H20.7834C18.0845 155.019 15.8965 157.207 15.8965 159.906V170.603C15.8965 173.302 18.0845 175.49 20.7834 175.49H90.0478C92.7468 175.49 94.9348 173.302 94.9348 170.603V159.906C94.9348 157.207 92.7468 155.019 90.0478 155.019Z" fill="#A3E8CA"/>
<path d="M186.92 155.019H117.656C114.957 155.019 112.769 157.207 112.769 159.906V170.603C112.769 173.302 114.957 175.49 117.656 175.49H186.92C189.619 175.49 191.807 173.302 191.807 170.603V159.906C191.807 157.207 189.619 155.019 186.92 155.019Z" fill="#A3E8CA"/>
<path d="M285.496 155.019H216.231C213.532 155.019 211.344 157.207 211.344 159.906V170.603C211.344 173.302 213.532 175.49 216.231 175.49H285.496C288.195 175.49 290.383 173.302 290.383 170.603V159.906C290.383 157.207 288.195 155.019 285.496 155.019Z" fill="#A3E8CA"/>
<path d="M186.108 45.8804H116.844C114.145 45.8804 111.957 48.0683 111.957 50.7673V102.079C111.957 104.778 114.145 106.966 116.844 106.966H186.108C188.807 106.966 190.995 104.778 190.995 102.079V50.7673C190.995 48.0683 188.807 45.8804 186.108 45.8804Z" fill="#A3E8CA"/>
<path d="M282.633 45.8804H213.368C210.669 45.8804 208.481 48.0683 208.481 50.7673V102.079C208.481 104.778 210.669 106.966 213.368 106.966H282.633C285.332 106.966 287.52 104.778 287.52 102.079V50.7673C287.52 48.0683 285.332 45.8804 282.633 45.8804Z" fill="#A3E8CA"/>
<path d="M90.0478 120.14H20.7834C18.0845 120.14 15.8965 122.328 15.8965 125.027V127.95C15.8965 130.649 18.0845 132.837 20.7834 132.837H90.0478C92.7468 132.837 94.9348 130.649 94.9348 127.95V125.027C94.9348 122.328 92.7468 120.14 90.0478 120.14Z" fill="#A3E8CA"/>
<path d="M186.108 120.14H116.844C114.145 120.14 111.957 122.328 111.957 125.027V127.95C111.957 130.649 114.145 132.837 116.844 132.837H186.108C188.807 132.837 190.995 130.649 190.995 127.95V125.027C190.995 122.328 188.807 120.14 186.108 120.14Z" fill="#A3E8CA"/>
<path d="M282.633 120.14H213.368C210.669 120.14 208.481 122.328 208.481 125.027V127.95C208.481 130.649 210.669 132.837 213.368 132.837H282.633C285.332 132.837 287.52 130.649 287.52 127.95V125.027C287.52 122.328 285.332 120.14 282.633 120.14Z" fill="#A3E8CA"/>
<path d="M76.1211 70.6929H35.3213V97.2658H76.1211V70.6929Z" fill="#C5F9E2"/>
<g style="mix-blend-mode:multiply" opacity="0.35">
<path d="M76.1211 70.6929H35.3213V74.225H76.1211V70.6929Z" fill="#A3E8CA"/>
</g>
<path d="M82.124 64.6445H29.3289V70.6896H82.124V64.6445Z" fill="#C5F9E2"/>
<path d="M59.5351 64.6445H51.9143V97.2671H59.5351V64.6445Z" fill="#DEFCEF"/>
<path d="M45.3917 64.6581C42.3478 64.6581 39.7816 62.1671 39.8383 59.1232C39.8406 59.0225 39.8453 58.923 39.8522 58.8247C40.1299 55.0183 44.8525 53.3766 47.5517 56.0746L56.1351 64.6581H45.3917Z" fill="#DEFCEF"/>
<path d="M55.3132 64.6584L63.8967 56.0749C66.5958 53.3758 71.3185 55.0175 71.5962 58.825C71.6031 58.9233 71.6077 59.0228 71.61 59.1235C71.6667 62.1674 69.1006 64.6584 66.0567 64.6584H55.3132Z" fill="#DEFCEF"/>
<path d="M267.412 61.834H226.612V97.2657H267.412V61.834Z" fill="#C5F9E2"/>
<path d="M246.705 67.0786H230.93V77.2297H246.705V67.0786Z" fill="#DEFCEF"/>
<path d="M170.813 62.4863H126.538V97.2609H170.813V62.4863Z" fill="#C5F9E2"/>
<path d="M142.486 62.4824H137.167V97.2651H142.486V62.4824Z" fill="#DEFCEF"/>
<path d="M170.813 70.6562H126.538V75.9713H170.813V70.6562Z" fill="#DEFCEF"/>
<path d="M145.123 70.6562H142.484V75.9713H145.123V70.6562Z" fill="#A3E8CA"/>
<path d="M137.018 70.6562H134.379V75.9713H137.018V70.6562Z" fill="#A3E8CA"/>
</svg>
