<svg width="20" height="21" viewBox="0 0 20 21" fill="none" xmlns="http://www.w3.org/2000/svg">
<path d="M10.5684 0.750297C10.4227 0.590912 10.2167 0.500122 10.0007 0.500122C9.78471 0.500122 9.57876 0.590912 9.43301 0.750297L5.33043 5.23748C5.04376 5.55101 5.06555 6.03758 5.37909 6.32424C5.69263 6.61091 6.17919 6.58913 6.46586 6.27559L9.23147 3.25069V14.6027C9.23147 15.0275 9.57589 15.3719 10.0007 15.3719C10.4255 15.3719 10.7699 15.0275 10.7699 14.6027V3.25069L13.5356 6.27559C13.8222 6.58913 14.3088 6.61091 14.6223 6.32424C14.9359 6.03758 14.9576 5.55101 14.671 5.23748L10.5684 0.750297Z" fill="#464653"/>
<path d="M1.53846 13.577C1.53846 13.1521 1.19407 12.8077 0.769231 12.8077C0.344401 12.8077 5.37388e-07 13.1521 5.37388e-07 13.577V13.6333C-1.99754e-05 15.0359 -4.05617e-05 16.1665 0.119508 17.0557C0.243631 17.9789 0.50916 18.7561 1.12651 19.3735C1.74387 19.9909 2.52117 20.2565 3.44436 20.3806C4.33356 20.5 5.46414 20.5 6.8668 20.5H13.1332C14.5359 20.5 15.6665 20.5 16.5557 20.3806C17.4789 20.2565 18.2561 19.9909 18.8735 19.3735C19.4909 18.7561 19.7564 17.9789 19.8805 17.0557C20 16.1665 20 15.0359 20 13.6333V13.577C20 13.1521 19.6556 12.8077 19.2308 12.8077C18.806 12.8077 18.4615 13.1521 18.4615 13.577C18.4615 15.0492 18.4599 16.0759 18.3558 16.8507C18.2546 17.6033 18.0695 18.0018 17.7856 18.2857C17.5017 18.5696 17.1033 18.7546 16.3507 18.8558C15.5759 18.9599 14.5491 18.9616 13.0769 18.9616H6.92308C5.45086 18.9616 4.42407 18.9599 3.64935 18.8558C2.89677 18.7546 2.49823 18.5696 2.21437 18.2857C1.93051 18.0018 1.74544 17.6033 1.64426 16.8507C1.54009 16.0759 1.53846 15.0492 1.53846 13.577Z" fill="#464653"/>
</svg>
