<svg width="205" height="278" viewBox="0 0 205 278" fill="none" xmlns="http://www.w3.org/2000/svg">
<path d="M13 97.9717V103.48C13 112.908 20.969 120.568 30.763 120.568H31.8074C37.15 139.3 50.4165 154.896 67.9046 163.822C77.9922 168.973 89.4814 171.915 101.687 171.915C113.893 171.915 125.377 168.973 135.473 163.822C152.96 154.895 166.219 139.3 171.561 120.568H172.606C182.4 120.568 190.369 112.908 190.369 103.48V97.9717C190.369 89.8082 184.373 83.0008 176.396 81.3157C176.676 78.8609 176.869 76.3804 176.869 73.8414L176.835 73.1273C176.848 71.3185 176.787 69.4485 176.546 67.4395V67.433C175.454 55.7834 171.397 44.9939 165.134 35.8349C161.908 31.1112 158.057 26.8529 153.764 23.1051C142.288 13.0733 127.413 6.87121 111.068 6.47833L110.243 5.82499C109.54 5.0541 108.77 4.91687 108.249 4.91687C107.025 4.91687 106.165 5.72885 105.469 6.3953H105.245C101.298 2.44117 98.331 0 95.7867 0H95.7736C93.3481 0.186169 81.9726 4.22376 78.3414 6.95293C77.5321 7.55864 76.63 8.33522 75.6752 9.19483C47.7481 17.44 27.3591 43.2485 27.3591 73.8414C27.3591 74.3099 27.3936 74.7696 27.4014 75.2298C27.3643 77.2877 27.4333 79.3159 27.6261 81.3157C19.345 82.7543 13 89.5967 13 97.9717ZM174.51 91.2735C177.613 92.0855 179.924 94.7395 179.924 97.9717V103.48C179.924 107.021 177.184 109.923 173.645 110.419C173.981 107.709 174.201 104.972 174.201 102.181C174.201 99.4781 173.952 96.8372 173.616 94.2243C173.926 93.2471 174.243 92.2704 174.51 91.2735ZM40.3821 93.2759C40.5963 91.9203 40.89 90.5992 41.202 89.2729C49.7107 83.2281 60.6151 73.8068 64.7886 66.3933C64.7886 66.3933 133.692 82.5402 158.792 84.3901C159.511 84.4447 160.193 84.4735 160.847 84.4788C161.77 87.3408 162.51 90.2553 162.987 93.2759C163.447 96.1908 163.756 99.1477 163.756 102.181C163.756 104.347 163.619 106.479 163.384 108.582C162.987 112.192 162.222 115.679 161.183 119.063C153.587 143.77 129.813 161.87 101.687 161.87C73.5618 161.87 49.7767 143.776 42.1861 119.068C41.1439 115.686 40.3826 112.192 39.991 108.589C39.7507 106.479 39.613 104.347 39.613 102.181C39.613 99.1473 39.922 96.1904 40.3821 93.2759ZM23.4447 97.9717C23.4447 94.4922 26.1053 91.6599 29.5647 91.1096C29.5857 92.4504 29.6333 93.7702 29.6626 95.1114C29.3746 97.4363 29.1679 99.7796 29.1679 102.181C29.1679 104.971 29.3798 107.709 29.7181 110.418C26.1817 109.922 23.4447 107.021 23.4447 103.479V97.9717Z" fill="#95969D"/>
<path d="M145.906 184.278L129.883 268.407H74.5402L58.5178 184.278C25.8032 186.713 0 213.957 0 247.303V278H204.418V247.303C204.418 213.958 178.617 186.713 145.906 184.278Z" fill="#95969D"/>
<path d="M85 277.878H119.722L111.11 201.083H110.808L119.262 180H85.4602L93.9134 201.083H93.6119L85 277.878Z" fill="#A3E8CA"/>
</svg>
