<svg width="58" height="52" viewBox="0 0 58 52" fill="none" xmlns="http://www.w3.org/2000/svg">
<path d="M29.9077 1.71246L51.9986 10.5487C52.8577 10.8924 53.545 11.9233 53.545 12.8315V20.9807C53.545 22.3307 52.4405 23.4352 51.0905 23.4352H6.90865C5.55865 23.4352 4.4541 22.3307 4.4541 20.9807V12.8315C4.4541 11.9233 5.14137 10.8924 6.00047 10.5487L28.0914 1.71246C28.5823 1.51609 29.4168 1.51609 29.9077 1.71246Z" stroke="#76757A" stroke-width="3" stroke-miterlimit="10" stroke-linecap="round" stroke-linejoin="round"/>
<path d="M53.545 50.4351H4.4541V43.0715C4.4541 41.7215 5.55865 40.6169 6.90865 40.6169H51.0905C52.4405 40.6169 53.545 41.7215 53.545 43.0715V50.4351Z" stroke="#76757A" stroke-width="3" stroke-miterlimit="10" stroke-linecap="round" stroke-linejoin="round"/>
<path d="M9.36328 40.6166V23.4348" stroke="#76757A" stroke-width="3" stroke-miterlimit="10" stroke-linecap="round" stroke-linejoin="round"/>
<path d="M19.1816 40.6166V23.4348" stroke="#76757A" stroke-width="3" stroke-miterlimit="10" stroke-linecap="round" stroke-linejoin="round"/>
<path d="M29 40.6166V23.4348" stroke="#76757A" stroke-width="3" stroke-miterlimit="10" stroke-linecap="round" stroke-linejoin="round"/>
<path d="M38.8184 40.6166V23.4348" stroke="#76757A" stroke-width="3" stroke-miterlimit="10" stroke-linecap="round" stroke-linejoin="round"/>
<path d="M48.6367 40.6166V23.4348" stroke="#76757A" stroke-width="3" stroke-miterlimit="10" stroke-linecap="round" stroke-linejoin="round"/>
<path d="M2 50.4351H56" stroke="#76757A" stroke-width="3" stroke-miterlimit="10" stroke-linecap="round" stroke-linejoin="round"/>
<path d="M29.0002 17.2987C31.0335 17.2987 32.682 15.6503 32.682 13.6169C32.682 11.5835 31.0335 9.93506 29.0002 9.93506C26.9668 9.93506 25.3184 11.5835 25.3184 13.6169C25.3184 15.6503 26.9668 17.2987 29.0002 17.2987Z" stroke="#76757A" stroke-width="3" stroke-miterlimit="10" stroke-linecap="round" stroke-linejoin="round"/>
</svg>
