<svg width="30" height="33" viewBox="0 0 30 33" fill="none" xmlns="http://www.w3.org/2000/svg">
<path fill-rule="evenodd" clip-rule="evenodd" d="M9.92596 32.3285C8.14173 32.3285 6.69531 30.882 6.69531 29.0978C6.69531 27.3135 8.14173 25.8672 9.92596 25.8672C11.7102 25.8672 13.1566 27.3135 13.1566 29.0978C13.1566 30.882 11.7102 32.3285 9.92596 32.3285ZM8.84908 29.0978C8.84908 29.6926 9.33122 30.1747 9.92596 30.1747C10.5207 30.1747 11.0028 29.6926 11.0028 29.0978C11.0028 28.5031 10.5207 28.021 9.92596 28.021C9.33122 28.021 8.84908 28.5031 8.84908 29.0978Z" fill="#05BD6E"/>
<path fill-rule="evenodd" clip-rule="evenodd" d="M22.8478 32.3285C21.0637 32.3285 19.6172 30.882 19.6172 29.0978C19.6172 27.3135 21.0637 25.8672 22.8478 25.8672C24.632 25.8672 26.0785 27.3135 26.0785 29.0978C26.0785 30.882 24.632 32.3285 22.8478 32.3285ZM21.771 29.0978C21.771 29.6926 22.2531 30.1747 22.8478 30.1747C23.4426 30.1747 23.9247 29.6926 23.9247 29.0978C23.9247 28.5031 23.4426 28.021 22.8478 28.021C22.2531 28.021 21.771 28.5031 21.771 29.0978Z" fill="#05BD6E"/>
<path d="M0.908912 4.07058C1.10618 3.50951 1.72094 3.21457 2.28201 3.41184L2.71477 3.56398C3.60001 3.87518 4.35187 4.13949 4.94356 4.42981C5.57624 4.74024 6.11877 5.12267 6.52681 5.71978C6.93169 6.31227 7.09885 6.9623 7.176 7.67503C7.18151 7.72605 7.18663 7.77795 7.19135 7.83072H12.2832V9.98449H7.24906V14.1341C7.24906 16.2721 7.2749 17.577 7.43451 18.509C7.58081 19.3632 7.82876 19.838 8.28848 20.3227C8.6798 20.7356 9.22201 21 10.2484 21.1456C11.3119 21.2964 12.7234 21.299 14.7577 21.299H22.3718C23.5195 21.299 24.2827 21.2971 24.8616 21.2262C25.4111 21.159 25.6659 21.042 25.8457 20.8955C26.0256 20.7489 26.1916 20.5229 26.3684 19.9982C26.5546 19.4457 26.7105 18.6985 26.9423 17.5745L27.6585 14.0996L27.659 14.0964C27.7122 13.8298 27.7616 13.5819 27.8068 13.3506H30.0004C29.9353 13.6957 29.8624 14.0609 29.7855 14.4461L29.7706 14.5211L29.7692 14.5277L29.0385 18.0733C28.8235 19.1164 28.6426 19.9938 28.4094 20.6862C28.1619 21.4205 27.8187 22.066 27.2063 22.5651C26.5939 23.0641 25.8924 23.27 25.1232 23.364C24.3981 23.4528 23.5021 23.4528 22.4372 23.4528H14.6754C12.7431 23.4528 11.1783 23.4528 9.94597 23.278C8.65911 23.0955 7.57821 22.704 6.72552 21.8047C5.9412 20.9774 5.52175 20.0992 5.31166 18.8725C5.11486 17.7236 5.09529 16.2197 5.09529 14.1341V10.2262C5.09529 9.16377 5.09382 8.45273 5.03474 7.9068C4.97827 7.38509 4.87819 7.1246 4.74859 6.93494C4.62215 6.74991 4.43022 6.57699 3.99483 6.36337C3.53128 6.13592 2.90129 5.91257 1.94272 5.57555L1.56766 5.44369C1.00658 5.24642 0.711641 4.63167 0.908912 4.07058Z" fill="#05BD6E"/>
<path d="M20.4343 14.2376C20.7467 14.55 21.2533 14.55 21.5657 14.2376L26.6569 9.14639C26.9693 8.83397 26.9693 8.32744 26.6569 8.01502C26.3444 7.7026 25.8379 7.7026 25.5255 8.01502L21 12.5405L16.4745 8.01502C16.1621 7.7026 15.6556 7.7026 15.3431 8.01502C15.0307 8.32744 15.0307 8.83397 15.3431 9.14639L20.4343 14.2376ZM20.2 0.671875L20.2 13.6719L21.8 13.6719L21.8 0.671875L20.2 0.671875Z" fill="#05BD6E"/>
</svg>
