<svg xmlns="http://www.w3.org/2000/svg" enable-background="new 0 0 64 64" viewBox="0 0 64 64" id="order"><path d="M53.09,51.76H21.14c-0.22,0-0.42-0.15-0.47-0.36L7.19,1.74h-6.7C0.22,1.74,0,1.52,0,1.24s0.22-0.49,0.49-0.49h7.08
				c0.22,0,0.42,0.15,0.47,0.36l13.47,49.66h31.57c0.27,0,0.49,0.22,0.49,0.49S53.36,51.76,53.09,51.76z"></path><path d="M53.59 44.65H19.21c-.27 0-.49-.22-.49-.49 0-.27.22-.49.49-.49h34.38c.74 0 1.4-.49 1.6-1.2l7.65-25.92H11.58c-.27 0-.49-.22-.49-.49 0-.27.22-.49.49-.49h51.92c.15 0 .3.07.39.2.09.12.12.29.08.43l-7.84 26.56C55.81 43.86 54.76 44.65 53.59 44.65zM21.14 63.25c-3.44 0-6.23-2.8-6.23-6.23s2.8-6.23 6.23-6.23 6.23 2.8 6.23 6.23S24.58 63.25 21.14 63.25zM21.14 51.76c-2.9 0-5.25 2.35-5.25 5.25 0 2.9 2.35 5.25 5.25 5.25 2.89 0 5.25-2.35 5.25-5.25C26.39 54.12 24.03 51.76 21.14 51.76zM53.05 63.25c-3.44 0-6.23-2.8-6.23-6.23s2.8-6.23 6.23-6.23 6.23 2.8 6.23 6.23S56.48 63.25 53.05 63.25zM53.05 51.76c-2.89 0-5.25 2.35-5.25 5.25 0 2.9 2.35 5.25 5.25 5.25 2.9 0 5.25-2.35 5.25-5.25C58.3 54.12 55.94 51.76 53.05 51.76z"></path><g><path d="M49.44,40.86H24.82c-0.27,0-0.49-0.22-0.49-0.49V23.08c0-0.27,0.22-0.49,0.49-0.49h24.62c0.27,0,0.49,0.22,0.49,0.49
				v17.29C49.94,40.64,49.72,40.86,49.44,40.86z M25.32,39.87h23.64v-16.3H25.32V39.87z"></path><path d="M38.87 34.48H35.4c-.27 0-.49-.22-.49-.49v-3.7c0-.27.22-.49.49-.49h3.47c.27 0 .49.22.49.49v3.7C39.36 34.26 39.14 34.48 38.87 34.48zM35.89 33.49h2.49v-2.72h-2.49V33.49zM41.3 23.57c-.27 0-.49-.22-.49-.49v-2.6c0-.48-.39-.88-.88-.88h-5.67c-.48 0-.88.39-.88.88v2.6c0 .27-.22.49-.49.49s-.49-.22-.49-.49v-2.6c0-1.03.83-1.86 1.86-1.86h5.67c1.03 0 1.86.84 1.86 1.86v2.6C41.79 23.35 41.57 23.57 41.3 23.57z"></path><path d="M35.4 32.62c-.05 0-.1-.01-.15-.02l-10.57-3.33c-.26-.08-.4-.36-.32-.62.08-.26.36-.4.62-.32l10.57 3.33c.26.08.4.36.32.62C35.8 32.49 35.61 32.62 35.4 32.62zM38.87 32.62c-.21 0-.4-.13-.47-.34-.08-.26.06-.54.32-.62l10.57-3.33c.26-.08.54.06.62.32.08.26-.06.54-.32.62L39.02 32.6C38.97 32.62 38.92 32.62 38.87 32.62z"></path></g></svg>