<svg width="35" height="35" viewBox="0 0 35 35" fill="none" xmlns="http://www.w3.org/2000/svg">
<path d="M23.3143 3.78037L26.6143 5.51213C30.1646 7.37521 31.9397 8.30675 32.9254 9.98069C33.9111 11.6546 33.9111 13.7376 33.9111 17.9036V18.0966C33.9111 22.2626 33.9111 24.3457 32.9254 26.0196C31.9397 27.6935 30.1646 28.625 26.6143 30.4881L23.3143 32.2198C20.4176 33.74 18.9692 34.5001 17.4111 34.5001C15.853 34.5001 14.4047 33.74 11.5079 32.2198L8.20791 30.4881C4.65767 28.625 2.88254 27.6935 1.89684 26.0196C0.911133 24.3457 0.911133 22.2626 0.911133 18.0966V17.9036C0.911133 13.7376 0.911133 11.6546 1.89684 9.98069C2.88254 8.30675 4.65767 7.37521 8.20791 5.51213L11.5079 3.78037C14.4047 2.26021 15.853 1.50012 17.4111 1.50012C18.9692 1.50012 20.4176 2.26021 23.3143 3.78037Z" stroke="#464653" stroke-width="2" stroke-linecap="round"/>
<path d="M32.2615 10.5751L25.6615 13.8751M25.6615 13.8751C25.6615 13.8751 25.1588 14.1265 24.8365 14.2876C21.9368 15.7375 17.4115 18.0001 17.4115 18.0001M25.6615 13.8751V19.6501M25.6615 13.8751L9.98652 5.62512M17.4115 18.0001L2.56152 10.5751M17.4115 18.0001V33.6751" stroke="#464653" stroke-width="2" stroke-linecap="round"/>
</svg>
