<svg width="35" height="35" viewBox="0 0 35 35" fill="none" xmlns="http://www.w3.org/2000/svg">
<path d="M24.1004 34.5001V19.6501C24.1004 17.3167 24.1004 16.15 23.3755 15.425C22.6505 14.7001 21.4838 14.7001 19.1504 14.7001H15.8504C13.5169 14.7001 12.3502 14.7001 11.6253 15.425C10.9004 16.15 10.9004 17.3167 10.9004 19.6501V34.5001" stroke="#464653" stroke-width="2" stroke-linecap="round"/>
<path d="M10.9 34.5001C10.9 32.1667 10.9 31 10.1751 30.275C9.45017 29.5501 8.28344 29.5501 5.95 29.5501C3.61655 29.5501 2.44982 29.5501 1.72491 30.275C1 31 1 32.1667 1 34.5001" stroke="#464653" stroke-width="2" stroke-linecap="round"/>
<path d="M33.9996 34.5001V29.5501C33.9996 27.2167 33.9996 26.05 33.2748 25.3249C32.5497 24.6001 31.383 24.6001 29.0496 24.6001C26.7162 24.6001 25.5495 24.6001 24.8245 25.3249C24.0996 26.05 24.0996 27.2167 24.0996 29.5501V34.5001" stroke="#464653" stroke-width="2" stroke-linecap="round"/>
<path d="M16.0905 3.18726C16.7175 2.06251 17.031 1.50012 17.4998 1.50012C17.9686 1.50012 18.2821 2.06251 18.9091 3.18726L19.0713 3.47826C19.2493 3.79788 19.3384 3.9577 19.4773 4.06313C19.6163 4.16858 19.7892 4.20772 20.1352 4.286L20.4502 4.35728C21.6677 4.63276 22.2765 4.7705 22.4214 5.23625C22.5663 5.70199 22.1511 6.18731 21.3212 7.15794L21.1064 7.40905C20.8706 7.68486 20.7526 7.82277 20.6995 7.99338C20.6465 8.16401 20.6643 8.348 20.7 8.71601L20.7325 9.05105C20.8579 10.3461 20.9207 10.9936 20.5416 11.2814C20.1622 11.5693 19.5923 11.3068 18.4523 10.7819L18.1575 10.6461C17.8334 10.497 17.6716 10.4224 17.4998 10.4224C17.328 10.4224 17.1662 10.497 16.8421 10.6461L16.5473 10.7819C15.4073 11.3068 14.8374 11.5693 14.458 11.2814C14.0789 10.9936 14.1417 10.3461 14.2671 9.05105L14.2996 8.71601C14.3353 8.348 14.3531 8.16401 14.3001 7.99338C14.247 7.82277 14.1291 7.68486 13.8932 7.40905L13.6784 7.15794C12.8484 6.18731 12.4334 5.70199 12.5782 5.23625C12.7231 4.7705 13.3318 4.63276 14.5494 4.35728L14.8644 4.286C15.2104 4.20772 15.3833 4.16858 15.5223 4.06313C15.6612 3.9577 15.7503 3.79788 15.9283 3.47826L16.0905 3.18726Z" stroke="#464653" stroke-width="2"/>
</svg>
