<svg xmlns="http://www.w3.org/2000/svg" width="98" height="101" viewBox="0 0 98 101" fill="none">
  <g clip-path="url(#clip0_30_48)">
    <path d="M85.323 8.26733H7.03125V76.9858H85.323V8.26733Z" fill="#E9F7F1"/>
    <path d="M97.7268 26.6497C97.7268 26.6497 78.1037 4.3311 75.6315 2.91006C74.3897 2.19522 72.1552 1.67638 70.2387 1.33481C69.3908 1.1316 68.2549 0.978835 66.9816 0.860656C66.8427 0.844802 66.7539 0.836155 66.7539 0.836155V0.839037C60.7509 0.308671 51.634 0.563766 51.634 0.563766C51.634 0.563766 51.4779 8.63167 41.2668 12.007C30.7663 14.3115 26.5623 7.43979 26.5623 7.43979C26.5623 7.43979 18.577 11.8744 13.6727 15.3967V15.3938C13.6727 15.3938 13.5996 15.4472 13.4879 15.5322C12.4509 16.2845 11.5485 16.9965 10.9197 17.6047C9.44011 18.8773 7.77716 20.4655 7.06672 21.715C5.653 24.2025 0.000976562 53.4534 0.000976562 53.4534L21.0091 57.6848L23.1419 43.2756L34.4846 90.2259L59.4604 83.3759L61.5845 82.7936L86.8453 75.8657L72.6565 29.6964L81.7605 41.0244L97.7283 26.6526L97.7268 26.6497Z" fill="#A3E8CA"/>
    <path d="M26.265 54.8099C26.1762 54.8315 25.6935 53.2375 24.9702 50.5929C24.2483 47.9497 23.2857 44.2559 22.2358 40.0793L22.296 40.2075C21.9021 39.6829 21.4867 39.1281 21.0642 38.566C18.2023 34.7425 15.6442 31.2562 13.8222 28.7124C12.9113 27.4398 12.1836 26.4036 11.6938 25.6772C11.2039 24.9509 10.9518 24.5344 10.9919 24.5041C11.032 24.4738 11.3586 24.8327 11.9172 25.5072C12.4758 26.1817 13.2651 27.1718 14.229 28.4055C16.1555 30.8714 18.7781 34.3087 21.64 38.1322C22.0596 38.6957 22.4736 39.2506 22.8675 39.7766L22.9119 39.8357L22.9291 39.9063C23.9575 44.0873 24.8355 47.8013 25.4357 50.4762C26.0358 53.1511 26.3538 54.7868 26.265 54.8099Z" fill="#05BD6E"/>
    <path d="M75.675 41.2596C75.5876 41.2855 75.0376 39.7132 74.2054 37.1017C73.3732 34.4902 72.2574 30.8411 71.0342 26.7134L71.0142 26.6442L71.0228 26.5707C71.0958 25.9164 71.1732 25.2275 71.2519 24.5271C71.7891 19.7711 72.3147 15.4705 72.7315 12.3618C72.9392 10.8082 73.1211 9.55145 73.2615 8.68528C73.4033 7.81911 73.5036 7.34207 73.5537 7.34783C73.6024 7.35359 73.5952 7.84072 73.5394 8.71698C73.4835 9.59324 73.379 10.8586 73.2357 12.4195C72.9478 15.5426 72.5024 19.8518 71.9638 24.6078C71.8836 25.3068 71.8048 25.9971 71.7303 26.65L71.7189 26.5088C72.9206 30.6422 73.9548 34.3173 74.6652 36.9633C75.3756 39.6108 75.7638 41.2308 75.6764 41.2581L75.675 41.2596Z" fill="#05BD6E"/>
    <path d="M50.9731 25.5264L66.1429 21.3836L68.7579 31.0781C69.7814 34.8725 67.5505 38.7895 63.7795 39.8193L62.2756 40.2301C58.5046 41.2599 54.6117 39.0152 53.5882 35.2209L50.9731 25.5264Z" fill="white"/>
    <path d="M60.4094 40.5173C59.1833 40.5173 57.9744 40.1959 56.883 39.5661C55.2344 38.6149 54.0513 37.0743 53.5542 35.2295L50.9302 25.4999L50.9646 25.4912L66.1689 21.3391L66.1775 21.3737L68.7915 31.0687C69.8185 34.8793 67.574 38.8196 63.7883 39.8529L62.2844 40.2637C61.6642 40.4338 61.0353 40.5173 60.4094 40.5173ZM51.0161 25.5503L53.6215 35.2108C54.1143 37.0382 55.2845 38.5631 56.9174 39.5042C58.5502 40.4438 60.4467 40.6917 62.2657 40.1945L63.7697 39.7838C67.5181 38.7605 69.7397 34.8591 68.7227 31.086L66.1173 21.427L51.0161 25.5503Z" fill="#05BD6E"/>
    <path d="M64.2307 39.5878C64.2121 39.5316 64.7364 39.4019 65.5686 38.9133C66.3778 38.4247 67.5352 37.4937 68.2055 35.8608C68.5349 35.0552 68.7269 34.0924 68.6653 33.0577C68.6008 32.0387 68.1797 30.9391 67.8732 29.7443C67.21 27.3519 66.4752 24.7073 65.6889 21.871L66.1085 22.1131C63.4917 22.8366 60.6556 23.6206 57.7122 24.4334C55.5909 25.0128 53.5254 25.5763 51.5545 26.1124L51.7994 25.6801C52.6302 28.8118 53.4094 31.7476 54.117 34.4124C54.2932 35.0739 54.4464 35.7311 54.6555 36.2961C54.8747 36.8725 55.1884 37.3842 55.5293 37.8468C56.2426 38.7505 57.1364 39.3947 58.0359 39.7593C59.865 40.5404 61.5007 40.2017 62.5492 39.9207C63.6263 39.6656 64.2179 39.5446 64.2293 39.5864C64.2408 39.6281 63.6707 39.827 62.6136 40.1571C61.601 40.5087 59.8478 40.9584 57.8697 40.1816C56.8914 39.8198 55.9074 39.1511 55.1096 38.1841C54.7257 37.6912 54.3734 37.1377 54.1213 36.5108C53.872 35.8709 53.7159 35.2296 53.5297 34.5724C52.7949 31.9148 51.9856 28.9877 51.1234 25.8646L51.0303 25.5259L51.3697 25.4322C53.3378 24.8889 55.4018 24.3196 57.5231 23.7359C60.4694 22.9331 63.3083 22.1606 65.9295 21.4472L66.2618 21.3564L66.3492 21.6894C67.1012 24.5358 67.803 27.189 68.4375 29.5901C68.7183 30.7805 69.1265 31.8845 69.1781 33.0288C69.2182 34.1515 68.9804 35.1834 68.5994 36.0323C67.8245 37.7531 66.5526 38.6726 65.6803 39.1151C65.2334 39.337 64.871 39.4667 64.6189 39.5215C64.3682 39.5835 64.2379 39.6065 64.2322 39.5864L64.2307 39.5878Z" fill="#05BD6E"/>
    <path d="M81.3971 91.3245H13.1016V100.504H81.3971V91.3245Z" fill="#E9F7F1"/>
  </g>
  <defs>
    <clipPath id="clip0_30_48">
      <rect width="97.7273" height="100" fill="white" transform="translate(0 0.502075)"/>
    </clipPath>
  </defs>
</svg>