<svg xmlns="http://www.w3.org/2000/svg" width="177" height="86" viewBox="0 0 177 86" fill="none">
  <path d="M33.2285 45.9163C33.2285 45.9163 44.7626 42.5286 63.2124 29.4593C76.705 19.9018 87.2527 8.51928 91.9471 3.09238C94.2014 0.485697 98.1155 0.0817403 100.745 2.29865C104.802 5.71921 110.398 14.3076 116.494 36.1332C127.24 74.6151 119.53 81.9326 116.297 81.3517C113.064 80.7701 91.7866 73.737 77.7855 73.1389C63.7844 72.5416 42.4464 76.7096 42.4464 76.7096L33.2285 45.9163Z" fill="#A3E8CA"/>
  <path d="M33.2279 45.9159C33.2174 45.9107 33.2607 46.0824 33.3548 46.4267C33.4608 46.8037 33.6049 47.3137 33.7886 47.9678C34.1941 49.3716 34.7772 51.3899 35.5291 53.9936C37.092 59.3271 39.3566 67.0546 42.2075 76.7824L42.2702 76.9967L42.492 76.9564C48.5618 75.849 55.5045 74.7753 63.1774 74.0368C67.0131 73.6814 71.037 73.4007 75.214 73.4193C79.3894 73.4283 83.6971 73.9637 88.1085 74.7544C96.9545 76.312 106.095 78.9889 115.762 81.6269L116.232 81.7314L116.784 81.7449C117.155 81.7613 117.481 81.5888 117.828 81.5067C118.123 81.3267 118.434 81.1595 118.711 80.9571L119.442 80.244C120.258 79.183 120.896 77.989 121.247 76.7212C122.018 74.2056 122.34 71.5631 122.355 68.9235C122.464 63.6318 121.76 58.299 120.822 52.9676C120.598 51.7856 120.375 50.6066 120.152 49.4313C119.914 48.2598 119.629 47.1032 119.371 45.9443C118.87 43.6221 118.279 41.3395 117.67 39.08C116.514 34.5439 115.175 30.1295 113.735 25.8316C112.279 21.5411 110.703 17.3664 108.807 13.4299C106.915 9.50979 104.767 5.72783 101.771 2.73959C101.018 2.02875 100.16 1.29326 99.1355 0.93784C98.1312 0.560764 97.0441 0.41292 95.9965 0.555537C94.9519 0.692181 93.9341 1.0491 93.0717 1.64122C92.1846 2.21617 91.5268 3.04872 90.8988 3.76479C88.319 6.70524 85.7131 9.46947 83.1206 12.0672C77.9386 17.2671 72.7955 21.7816 67.895 25.6307C58.0103 33.2275 49.2868 38.3729 43.096 41.5344C39.9951 43.1144 37.5213 44.2023 35.8271 44.8952C34.9811 45.2454 34.327 45.4896 33.8887 45.6553C33.4556 45.8159 33.2129 45.9077 33.2264 45.9144C33.2405 45.9212 33.4586 45.8756 33.9141 45.7322C34.3621 45.5911 35.0266 45.3708 35.8838 45.0438C37.6004 44.3972 40.1011 43.3511 43.2305 41.8099C49.4817 38.7231 58.2642 33.6427 68.2302 26.0735C73.171 22.2378 78.3545 17.7315 83.5746 12.5331C86.1865 9.93614 88.8111 7.17117 91.4111 4.22624C92.0726 3.47582 92.6625 2.73661 93.4533 2.22886C94.2283 1.69797 95.1438 1.38286 96.0793 1.2619C97.9886 1.00952 99.8927 1.78383 101.274 3.26451C104.148 6.14149 106.272 9.87492 108.135 13.7569C110.006 17.6561 111.567 21.8084 113.011 26.0795C114.439 30.3572 115.769 34.7604 116.919 39.2809C117.526 41.5329 118.114 43.8073 118.611 46.119C118.868 47.2727 119.151 48.4255 119.389 49.5904C119.61 50.7589 119.831 51.9312 120.054 53.1065C120.987 58.4027 121.685 63.699 121.58 68.9011C121.568 71.4974 121.247 74.0779 120.517 76.474C120.185 77.6896 119.583 78.7858 118.866 79.7326L118.24 80.3463C118.009 80.5114 117.76 80.6405 117.525 80.7951C116.978 80.9579 116.553 81.0773 115.923 80.8705C106.346 78.2683 97.1075 75.5855 88.2317 74.0488C83.7994 73.2663 79.4365 72.7384 75.2185 72.7451C71.0064 72.7406 66.9683 73.04 63.1207 73.4141C55.4238 74.1907 48.4819 75.3055 42.3994 76.4598L42.6831 76.6338C39.7389 67.0016 37.4003 59.351 35.786 54.0697C34.9766 51.4571 34.3494 49.4328 33.9133 48.0246C33.7027 47.3593 33.5385 46.8403 33.4168 46.4565C33.3018 46.1026 33.2383 45.9189 33.2279 45.9129V45.9159Z" fill="#2C2B3D"/>
  <path d="M3.11592 78.5002L10.6067 77.3555L6.30203 67.4111L0 70.7742L3.11592 78.5002Z" fill="#05BD6E"/>
  <path d="M5.29746 66.4031L8.65083 74.1484L10.481 78.3754C12.9898 84.1734 19.5435 86.9675 25.3938 84.7342L55.816 76.4034L43.4568 37.8513L12.6635 49.2293C6.75499 51.8905 2.75052 58.9026 5.29746 66.4031Z" fill="#05BD6E"/>
  <path d="M98.2229 30.7112C98.2229 30.7112 109.089 26.0638 112.411 40.4704C115.734 54.8762 104.969 55.4519 104.969 55.4519C101.741 48.0813 99.4639 39.8596 98.2222 30.7119L98.2229 30.7112Z" fill="white"/>
  <path d="M37.373 52.8511C37.4388 53.0504 32.2164 54.9814 25.7113 57.1639C19.2039 59.3472 13.8771 60.9556 13.8121 60.7555C13.7472 60.5569 18.968 58.6259 25.4754 56.4426C31.9805 54.2601 37.3081 52.6525 37.373 52.8511Z" fill="#2C2B3D"/>
  <path d="M38.7205 57.0979C38.7854 57.2972 33.5638 59.2282 27.0587 61.4107C20.5514 63.594 15.2245 65.2016 15.1595 65.003C15.0946 64.8037 20.3147 62.8735 26.8228 60.6902C33.3279 58.5076 38.6555 56.8985 38.7205 57.0979Z" fill="#2C2B3D"/>
  <path d="M40.0652 61.3429C40.1302 61.5422 34.9086 63.4732 28.4035 65.6557C21.8961 67.8398 16.57 69.4474 16.5043 69.248C16.4386 69.0487 21.6594 67.1185 28.1675 64.9344C34.6726 62.7519 40.0002 61.1435 40.0652 61.3429Z" fill="#2C2B3D"/>
  <path d="M41.4094 65.5887C41.4744 65.7881 36.2528 67.7198 29.7477 69.9016C23.2403 72.0849 17.9142 73.6933 17.8485 73.4939C17.7835 73.2945 23.0044 71.3636 29.5117 69.1803C36.0168 66.9977 41.3444 65.3894 41.4102 65.588L41.4094 65.5887Z" fill="#2C2B3D"/>
  <path d="M132.473 50.9162C132.427 51.0519 138.981 53.4693 147.111 56.3134C155.244 59.159 161.872 61.3549 161.918 61.2193C161.965 61.0836 155.412 58.6669 147.279 55.8213C139.149 52.9765 132.519 50.7797 132.473 50.9162Z" fill="#2C2B3D"/>
  <path d="M129.832 35.5347C129.853 35.6774 140.314 34.2184 153.193 32.2774C166.078 30.3356 176.502 28.6465 176.481 28.5038C176.46 28.3619 166.002 29.8202 153.118 31.7619C140.238 33.7037 129.812 35.3928 129.832 35.5347Z" fill="#2C2B3D"/>
  <path d="M127.503 19.7481C127.6 19.8534 131.265 16.582 135.688 12.4419C140.113 8.30027 143.62 4.85811 143.524 4.75284C143.427 4.64756 139.763 7.91816 135.339 12.0598C130.915 16.2007 127.407 19.6421 127.503 19.7481Z" fill="#2C2B3D"/>
  <path d="M97.6755 5.78467C97.6475 5.78312 97.6092 6.0506 97.5632 6.5606C97.5188 7.16731 97.465 7.9058 97.4003 8.79793C97.3285 9.77037 97.2653 10.9612 97.2638 12.3454C97.2529 13.7295 97.1936 15.3071 97.2747 17.0493C97.334 20.5359 97.642 24.683 98.2136 29.259C98.8367 33.828 99.753 38.822 101.079 43.9767C102.443 49.1228 104.083 53.9242 105.772 58.2085C107.509 62.4742 109.265 66.2337 110.916 69.2945C111.695 70.8495 112.518 72.1916 113.203 73.3894C113.88 74.5927 114.516 75.5956 115.052 76.405C115.544 77.1474 115.952 77.7619 116.287 78.268C116.576 78.6883 116.739 78.902 116.763 78.8864C116.787 78.8708 116.67 78.6275 116.426 78.1783C116.127 77.652 115.763 77.0109 115.324 76.2373C114.83 75.4045 114.236 74.3806 113.599 73.1601C112.954 71.9452 112.171 70.5898 111.428 69.0247C109.85 65.9444 108.159 62.181 106.47 57.927C104.83 53.6536 103.222 48.8779 101.869 43.7661C100.552 38.6466 99.6189 33.6908 98.9591 29.1561C98.3501 24.6136 97.9836 20.4961 97.8518 17.029C97.734 15.297 97.7527 13.7264 97.7208 12.3477C97.6794 10.9682 97.6958 9.78051 97.7184 8.80884C97.7223 7.91594 97.7262 7.17745 97.7286 6.56996C97.7223 6.05683 97.7052 5.78701 97.6771 5.78467H97.6755Z" fill="#2C2B3D"/>
</svg>