<svg width="36" height="35" viewBox="0 0 36 35" fill="none" xmlns="http://www.w3.org/2000/svg">
<path d="M3.53677 25.668C1.96386 19.3764 1.17741 16.2305 2.82893 14.1154C4.48046 12.0001 7.72309 12.0001 14.2083 12.0001H22.6979C29.1832 12.0001 32.4258 12.0001 34.0772 14.1154C35.7289 16.2305 34.9424 19.3764 33.3696 25.668C32.3691 29.6696 31.8688 31.6703 30.377 32.8352C28.8851 34.0001 26.8227 34.0001 22.6979 34.0001H14.2083C10.0836 34.0001 8.02123 34.0001 6.5293 32.8352C5.03737 31.6703 4.53716 29.6696 3.53677 25.668Z" stroke="#464653" stroke-width="2"/>
<path d="M32.2031 12.9168L30.9007 8.14035C30.3986 6.29859 30.1474 5.3777 29.6324 4.68417C29.1195 3.9935 28.4224 3.46112 27.6213 3.14795C26.8166 2.8335 25.8622 2.8335 23.9531 2.8335M4.70312 12.9168L6.00553 8.14035C6.50771 6.29859 6.75881 5.3777 7.27384 4.68417C7.78677 3.9935 8.48375 3.46112 9.28503 3.14795C10.0896 2.8335 11.0441 2.8335 12.9531 2.8335" stroke="#464653" stroke-width="2"/>
<path d="M12.9531 2.83346C12.9531 1.82094 13.7739 1.00012 14.7865 1.00012H22.1198C23.1323 1.00012 23.9531 1.82094 23.9531 2.83346C23.9531 3.84597 23.1323 4.66679 22.1198 4.66679H14.7865C13.7739 4.66679 12.9531 3.84597 12.9531 2.83346Z" stroke="#464653" stroke-width="2"/>
<path d="M11.1201 19.3335V26.6668" stroke="#464653" stroke-width="2" stroke-linecap="round" stroke-linejoin="round"/>
<path d="M25.7861 19.3335V26.6668" stroke="#464653" stroke-width="2" stroke-linecap="round" stroke-linejoin="round"/>
<path d="M18.4531 19.3335V26.6668" stroke="#464653" stroke-width="2" stroke-linecap="round" stroke-linejoin="round"/>
</svg>
