<svg width="35" height="35" viewBox="0 0 35 35" fill="none" xmlns="http://www.w3.org/2000/svg">
<path fill-rule="evenodd" clip-rule="evenodd" d="M30.4246 17.1359C30.395 17.1356 30.3562 17.1356 30.293 17.1356H26.4977C24.4219 17.1356 22.8799 18.6795 22.8799 20.4168C22.8799 22.1541 24.4219 23.6981 26.4977 23.6981H30.293C30.3562 23.6981 30.395 23.6981 30.4246 23.6978C30.4526 23.6975 30.4603 23.6969 30.4603 23.6969C30.7607 23.6787 30.8901 23.4758 30.9 23.3537C30.9 23.3537 30.9003 23.3447 30.9004 23.3314C30.9007 23.3055 30.9007 23.2711 30.9007 23.212V17.6216C30.9007 17.589 30.9007 17.5639 30.9007 17.5435C30.9006 17.5271 30.9006 17.5137 30.9004 17.5022C30.9003 17.4891 30.9 17.4799 30.9 17.4799C30.8901 17.3578 30.7607 17.155 30.4602 17.1367C30.4602 17.1367 30.453 17.1361 30.4246 17.1359ZM30.3172 14.9481C30.4141 14.9481 30.5074 14.9479 30.5932 14.9532C31.8638 15.0306 32.9876 15.989 33.0821 17.3278C33.0884 17.4156 33.0882 17.5102 33.0882 17.5979C33.0882 17.6059 33.0882 17.6137 33.0882 17.6216V23.212C33.0882 23.2199 33.0882 23.2277 33.0882 23.2358C33.0882 23.3234 33.0884 23.4181 33.0821 23.5059C32.9876 24.8446 31.8638 25.803 30.5932 25.8805C30.5074 25.8857 30.4141 25.8856 30.3172 25.8856C30.3092 25.8856 30.3012 25.8856 30.293 25.8856H26.4977C23.3693 25.8856 20.6924 23.512 20.6924 20.4168C20.6924 17.3216 23.3693 14.9481 26.4977 14.9481H30.293C30.3012 14.9481 30.3092 14.9481 30.3172 14.9481Z" fill="#464653"/>
<path d="M27.6198 20.4168C27.6198 21.2222 26.9669 21.8751 26.1615 21.8751C25.356 21.8751 24.7031 21.2222 24.7031 20.4168C24.7031 19.6113 25.356 18.9584 26.1615 18.9584C26.9669 18.9584 27.6198 19.6113 27.6198 20.4168Z" fill="#464653"/>
<path fill-rule="evenodd" clip-rule="evenodd" d="M30.3176 14.948C30.4144 14.948 30.5077 14.9479 30.5935 14.9531C30.9222 14.9731 31.2411 15.0522 31.535 15.1815C31.3789 12.8388 30.9493 11.0333 29.6014 9.68527C28.51 8.59391 27.126 8.10957 25.4162 7.87969L25.3546 7.87154C25.3392 7.8602 25.3236 7.84921 25.3076 7.83855L19.86 4.22646C17.9595 2.96634 15.4051 2.96634 13.5046 4.22646L8.05704 7.83855C8.04098 7.84921 8.02529 7.8602 8.00998 7.87154L7.9483 7.87969C6.23852 8.10957 4.85464 8.59391 3.76327 9.68527C2.67191 10.7766 2.18757 12.1605 1.9577 13.8703C1.73433 15.5317 1.73435 17.6544 1.73438 20.3345V20.499C1.73435 23.1792 1.73433 25.3019 1.9577 26.9633C2.18757 28.673 2.67191 30.057 3.76327 31.1484C4.85464 32.2397 6.23852 32.724 7.9483 32.9539C9.60965 33.1772 11.7325 33.1772 14.4125 33.1772H18.952C21.6322 33.1772 23.7549 33.1772 25.4162 32.9539C27.126 32.724 28.51 32.2397 29.6014 31.1484C30.9493 29.8003 31.3789 27.9949 31.535 25.6521C31.2411 25.7814 30.9222 25.8605 30.5935 25.8804C30.5077 25.8857 30.4144 25.8855 30.3176 25.8855H30.2933H29.323C29.157 27.8419 28.7815 28.8745 28.0545 29.6015C27.4373 30.2187 26.592 30.5887 25.1249 30.7858C23.6261 30.9874 21.6505 30.9897 18.8698 30.9897H14.4948C11.714 30.9897 9.73845 30.9874 8.23978 30.7858C6.77257 30.5887 5.92724 30.2187 5.31006 29.6015C4.69288 28.9844 4.32295 28.139 4.12569 26.6719C3.92419 25.1731 3.92188 23.1975 3.92188 20.4168C3.92188 17.636 3.92419 15.6604 4.12569 14.1618C4.32295 12.6946 4.69288 11.8492 5.31006 11.2321C5.92724 10.6149 6.77257 10.2449 8.23978 10.0477C9.73845 9.84619 11.714 9.84387 14.4948 9.84387H18.8698C21.6505 9.84387 23.6261 9.84619 25.1249 10.0477C26.592 10.2449 27.4373 10.6149 28.0545 11.2321C28.7815 11.9591 29.157 12.9917 29.323 14.948H30.2933H30.3176ZM14.4125 7.65637H18.952C19.7053 7.65636 20.4145 7.65636 21.0818 7.66132L18.6512 6.0496C17.4833 5.27529 15.8812 5.27529 14.7135 6.0496L12.2828 7.66132C12.9501 7.65636 13.6593 7.65636 14.4125 7.65637Z" fill="#464653"/>
<path d="M8.66113 13.4897C8.05708 13.4897 7.56738 13.9794 7.56738 14.5834C7.56738 15.1875 8.05708 15.6772 8.66113 15.6772H14.4945C15.0985 15.6772 15.5882 15.1875 15.5882 14.5834C15.5882 13.9794 15.0985 13.4897 14.4945 13.4897H8.66113Z" fill="#464653"/>
<path fill-rule="evenodd" clip-rule="evenodd" d="M27.6198 20.4168C27.6198 21.2222 26.9669 21.8751 26.1615 21.8751C25.356 21.8751 24.7031 21.2222 24.7031 20.4168C24.7031 19.6113 25.356 18.9584 26.1615 18.9584C26.9669 18.9584 27.6198 19.6113 27.6198 20.4168Z" fill="#464653"/>
</svg>
