<svg width="186" height="56" viewBox="0 0 186 56" fill="none" xmlns="http://www.w3.org/2000/svg">
<g clip-path="url(#clip0_2320_17707)">
<path d="M41.7928 11.3752C40.386 12.0231 39.0484 12.6978 37.7749 13.3885L38.4623 13.94C38.4623 13.94 28.3375 30.0891 28.103 31.2403C27.8739 32.3915 24.197 32.4022 24.197 32.4022V18.2075L25.0123 17.4579C24.9537 17.3562 24.8951 17.2544 24.8365 17.1527C26.8454 14.3041 29.5099 11.0165 32.9416 7.83059C36.9542 4.10924 40.7963 1.65689 43.8977 0.0291335C44.2121 -0.136855 44.3932 0.462845 44.3932 0.462845C45.2885 1.65154 44.4092 3.6434 44.5584 5.8655C44.6224 6.79718 44.8835 8.10902 45.832 9.65111C44.5158 10.1705 43.1623 10.7434 41.7928 11.3752Z" fill="#A3E8CA"/>
<path d="M60.1665 26.432C59.7136 25.6502 57.8698 25.8965 56.415 26.1696C53.1005 26.7854 50.6333 27.7492 49.9725 28.0169C48.2726 28.6916 46.1038 29.5911 43.6046 30.7263C43.6046 30.7263 43.6046 30.7263 43.6046 30.7209C45.8054 28.1508 47.9582 26.8711 49.5036 26.175C52.3225 24.906 57.2943 23.6905 58.9143 21.8057C59.4951 21.1311 59.8628 20.178 59.8628 20.178C60.4596 18.8715 60.6408 17.6828 60.6994 16.9064C60.6994 16.6173 60.4703 16.3817 60.1772 16.371C55.5411 16.1889 50.3508 18.4271 48.9494 19.0803C48.944 19.0803 48.9387 19.0803 48.9334 19.0803C48.9334 19.0803 48.9067 19.075 48.9014 19C48.8961 18.9411 49.7593 17.0349 54.3368 14.8771C56.6495 13.7901 59.234 12.9495 59.5164 11.6376C59.5377 11.5412 59.6496 11.1771 59.6603 10.7755C59.6763 10.2187 59.7296 9.57614 59.8575 8.88006C60.06 7.79846 60.3797 6.89891 60.6834 6.20283C60.6728 6.08503 60.6301 5.90833 60.4916 5.79054C60.3744 5.69415 60.2198 5.64596 60.0546 5.67274C57.3156 6.15464 54.1503 6.86143 50.6919 7.94838C49.1199 8.44099 47.4893 9.00857 45.8107 9.66717C44.4945 10.1865 43.141 10.7595 41.7714 11.3913C39.2296 12.5693 36.9062 13.8169 34.796 15.0805C28.9716 18.577 25.2681 24.7614 24.9803 31.5562C24.975 31.6954 24.9697 31.7865 24.9697 31.8186C24.634 28.6327 24.9484 25.5913 25.6678 22.7642C26.1367 20.9222 25.8969 18.9732 24.9271 17.3455L24.8151 17.1634C24.4794 16.6119 24.0851 16.0443 23.6108 15.4982C23.3231 15.1662 23.0087 14.8396 22.6623 14.5237C20.6853 12.7299 18.5218 11.9696 16.1079 11.9696C15.8041 11.9696 15.5057 11.9856 15.2126 12.0124C12.5322 12.2641 10.3634 13.3885 9.13243 14.0525C8.56758 14.3577 8.58356 14.3791 8.06134 14.6468C6.63854 15.3804 5.62074 15.6802 4.7255 16.0015C2.65792 16.7351 0.899405 17.3615 0.915391 17.9559C0.947364 19.0054 6.36677 17.9452 9.12177 21.0026C11.5624 23.7066 10.1289 26.9674 10.811 32.4397C12.1006 42.7524 19.7634 49.3277 20.616 50.0452C25.5772 54.2002 31.1298 55.5442 34.7587 55.9993C34.8387 56.0101 34.876 55.903 34.8067 55.8601C33.4798 55.0837 31.8758 53.9593 30.2878 52.353C27.5542 49.59 26.126 46.6772 25.3907 44.7978C26.2326 46.0133 27.405 47.4268 29.0196 48.7762C29.6963 49.3437 30.8101 50.2647 32.4727 51.0839C34.002 51.8389 35.8192 52.7331 37.7642 52.4654C39.8424 52.1816 41.2386 50.6984 42.1391 49.6971C48.9654 42.1206 50.8944 36.6108 56.6389 32.8574C57.4648 32.3165 58.035 31.8775 58.6052 31.5241C59.6869 30.8494 60.353 29.6822 60.3264 28.4024C60.3264 28.3542 60.3264 28.3007 60.3264 28.2472C60.2944 27.1602 60.2731 26.614 60.1665 26.432ZM21.0956 19.9263C22.0228 22.218 19.7847 24.4615 17.4987 23.5299C16.8272 23.2568 16.2784 22.7053 16.0066 22.0306C15.0794 19.7389 17.3175 17.4954 19.6036 18.4271C20.275 18.7001 20.8239 19.2517 21.0956 19.9263Z" fill="#05BD6E"/>
<path d="M108.026 7.80548C107.385 7.80548 106.824 8.22191 106.648 8.82293L98.6946 35.8519H98.2339L90.2802 8.82293C90.1047 8.22191 89.5387 7.80548 88.9026 7.80548H80.497C79.7424 7.80548 79.1151 8.38075 79.0624 9.11915L76.5442 46.6961C76.4916 47.5075 77.1453 48.1944 77.9788 48.1944H83.1512C83.9101 48.1944 84.5375 47.6191 84.5857 46.8764L86.3493 19.182H86.7442L94.9656 47.1769C95.141 47.778 95.707 48.1944 96.3475 48.1944H100.585C101.226 48.1944 101.792 47.778 101.967 47.1726L110.123 19.182H110.584L112.347 46.8764C112.395 47.6148 113.023 48.1944 113.782 48.1944H118.954C119.783 48.1944 120.441 47.5075 120.389 46.6961L117.87 9.11915C117.822 8.38075 117.195 7.80548 116.436 7.80548H108.03H108.026Z" fill="#424063"/>
<path d="M135.571 23.0774L129.799 8.67277C129.588 8.14896 129.096 7.80548 128.55 7.80548H123.572C122.591 7.80548 121.933 8.85739 122.334 9.78478L132.882 34.2191C132.96 34.3994 133.002 34.5969 133.002 34.7944V46.7904C133.002 47.5675 133.61 48.1944 134.355 48.1944H139.308C140.057 48.1944 140.661 47.5632 140.661 46.7904V34.7944C140.661 34.5969 140.702 34.3994 140.781 34.2191L151.328 9.78478C151.73 8.85739 151.076 7.80548 150.091 7.80548H145.055C144.509 7.80548 144.013 8.14896 143.806 8.67277L138.075 23.0689C137.616 24.2238 136.035 24.2281 135.571 23.0689V23.0774Z" fill="#424063"/>
<path d="M185.845 46.1807L180.07 34.584C179.75 33.9443 179.981 33.1757 180.602 32.7893C181.223 32.4029 181.724 31.9864 182.177 31.4884C184 29.4876 184.914 26.246 184.914 21.7636C184.914 18.316 184.501 15.581 183.681 13.5588C182.856 11.5322 181.52 10.0682 179.675 9.16223C177.83 8.2563 175.345 7.80548 172.231 7.80548H156.39C155.587 7.80548 154.94 8.43662 154.94 9.20945V46.7904C154.94 47.5675 155.592 48.1944 156.39 48.1944H161.7C162.503 48.1944 163.151 47.5632 163.151 46.7904V35.9021C163.151 35.125 163.803 34.4981 164.601 34.4981H170.288C170.852 34.4981 171.362 34.8116 171.601 35.301L177.515 47.3915C177.754 47.881 178.264 48.1944 178.828 48.1944H184.546C185.615 48.1944 186.32 47.1124 185.854 46.1807H185.845ZM163.146 15.8043C163.146 15.0271 163.798 14.4003 164.597 14.4003H172.16C173.717 14.4003 174.795 14.5935 175.399 14.9842C175.997 15.3706 176.299 16.0833 176.299 17.1181V25.7136C176.299 26.7484 175.997 27.4568 175.399 27.8475C174.795 28.2339 173.717 28.4271 172.16 28.4271H164.597C163.794 28.4271 163.146 27.796 163.146 27.0232V15.8086V15.8043Z" fill="#424063"/>
</g>
<defs>
<clipPath id="clip0_2320_17707">
<rect width="185.085" height="56" fill="white" transform="translate(0.915283)"/>
</clipPath>
</defs>
</svg>
